%FSAX24Y24*%
%MOIN*%
G70*
G01*
G75*
G04 Layer_Color=2752767*
%ADD10R,0.0591X0.0591*%
%ADD11C,0.0591*%
%ADD12R,0.0472X0.0472*%
%ADD13C,0.0472*%
%ADD14R,0.0591X0.0591*%
%ADD15C,0.0315*%
%ADD16C,0.0079*%
%ADD17C,0.0100*%
%ADD18C,0.0059*%
%ADD19R,0.0671X0.0671*%
%ADD20C,0.0671*%
%ADD21R,0.0552X0.0552*%
%ADD22C,0.0552*%
%ADD23R,0.0671X0.0671*%
%ADD24C,0.0050*%
%ADD25C,0.0067*%
D24*
X019550Y047800D02*
Y048200D01*
X019950D01*
Y047800D01*
X019550D01*
X018550D02*
Y048200D01*
X018950D01*
Y047800D01*
X018550D01*
X017550D02*
Y048200D01*
X017950D01*
Y047800D01*
X017550D01*
X024400D02*
Y048200D01*
X024800D01*
Y047800D01*
X024400D01*
X023400D02*
Y048200D01*
X023800D01*
Y047800D01*
X023400D01*
X022400D02*
Y048200D01*
X022800D01*
Y047800D01*
X022400D01*
X012950D02*
Y048200D01*
X013350D01*
Y047800D01*
X012950D01*
X013950D02*
Y048200D01*
X014350D01*
Y047800D01*
X013950D01*
X014950D02*
Y048200D01*
X015350D01*
Y047800D01*
X014950D01*
X008350D02*
Y048200D01*
X008750D01*
Y047800D01*
X008350D01*
X009350D02*
Y048200D01*
X009750D01*
Y047800D01*
X009350D01*
X010350D02*
Y048200D01*
X010750D01*
Y047800D01*
X010350D01*
X017550Y045900D02*
Y046300D01*
X017950D01*
Y045900D01*
X017550D01*
X018550D02*
Y046300D01*
X018950D01*
Y045900D01*
X018550D01*
X014950Y045650D02*
Y046050D01*
X015350D01*
Y045650D01*
X014950D01*
X013950D02*
Y046050D01*
X014350D01*
Y045650D01*
X013950D01*
X024450Y044650D02*
Y045050D01*
X024850D01*
Y044650D01*
X024450D01*
Y045650D02*
Y046050D01*
X024850D01*
Y045650D01*
X024450D01*
X007300Y044450D02*
Y044850D01*
X007700D01*
Y044450D01*
X007300D01*
Y045450D02*
Y045850D01*
X007700D01*
Y045450D01*
X007300D01*
X024450Y041300D02*
Y041700D01*
X024850D01*
Y041300D01*
X024450D01*
Y042300D02*
Y042700D01*
X024850D01*
Y042300D01*
X024450D01*
X007300Y041000D02*
Y041400D01*
X007700D01*
Y041000D01*
X007300D01*
Y042000D02*
Y042400D01*
X007700D01*
Y042000D01*
X007300D01*
X024450Y037800D02*
Y038200D01*
X024850D01*
Y037800D01*
X024450D01*
Y038800D02*
Y039200D01*
X024850D01*
Y038800D01*
X024450D01*
X007300Y037600D02*
Y038000D01*
X007700D01*
Y037600D01*
X007300D01*
Y038600D02*
Y039000D01*
X007700D01*
Y038600D01*
X007300D01*
X024450Y034300D02*
Y034700D01*
X024850D01*
Y034300D01*
X024450D01*
Y035300D02*
Y035700D01*
X024850D01*
Y035300D01*
X024450D01*
X007250Y033850D02*
Y034250D01*
X007650D01*
Y033850D01*
X007250D01*
Y034850D02*
Y035250D01*
X007650D01*
Y034850D01*
X007250D01*
X023550Y031350D02*
Y031750D01*
X023950D01*
Y031350D01*
X023550D01*
X024550D02*
Y031750D01*
X024950D01*
Y031350D01*
X024550D01*
X008250Y031300D02*
Y031700D01*
X008650D01*
Y031300D01*
X008250D01*
X007250D02*
Y031700D01*
X007650D01*
Y031300D01*
X007250D01*
X020150Y031350D02*
Y031750D01*
X020550D01*
Y031350D01*
X020150D01*
X021150D02*
Y031750D01*
X021550D01*
Y031350D01*
X021150D01*
X011600D02*
Y031750D01*
X012000D01*
Y031350D01*
X011600D01*
X010600D02*
Y031750D01*
X011000D01*
Y031350D01*
X010600D01*
X016600Y031400D02*
Y031800D01*
X017000D01*
Y031400D01*
X016600D01*
X017600D02*
Y031800D01*
X018000D01*
Y031400D01*
X017600D01*
X014950Y031350D02*
Y031750D01*
X015350D01*
Y031350D01*
X014950D01*
X013950D02*
Y031750D01*
X014350D01*
Y031350D01*
X013950D01*
D25*
X021450Y042250D02*
G03*
X021450Y042250I-000200J000000D01*
G01*
X018450D02*
G03*
X018450Y042250I-000200J000000D01*
G01*
X012300Y041900D02*
G03*
X012300Y041900I-000200J000000D01*
G01*
X015300D02*
G03*
X015300Y041900I-000200J000000D01*
G01*
M02*
