%FSDAX24Y24*%
%MOIN*%
%SFA1B1*%

%IPPOS*%
%ADD24C,0.005000*%
%LNcartepuissance-1*%
%LPD*%
G54D24*
X019573Y048000D02*
X019927D01*
X019750Y047823D02*
Y048177D01*
X018573Y048000D02*
X018927D01*
X018750Y047823D02*
Y048177D01*
X017573Y048000D02*
X017927D01*
X017750Y047823D02*
Y048177D01*
X024423Y048000D02*
X024777D01*
X024600Y047823D02*
Y048177D01*
X023423Y048000D02*
X023777D01*
X023600Y047823D02*
Y048177D01*
X022423Y048000D02*
X022777D01*
X022600Y047823D02*
Y048177D01*
X012973Y048000D02*
X013327D01*
X013150Y047823D02*
Y048177D01*
X013973Y048000D02*
X014327D01*
X014150Y047823D02*
Y048177D01*
X014973Y048000D02*
X015327D01*
X015150Y047823D02*
Y048177D01*
X008373Y048000D02*
X008727D01*
X008550Y047823D02*
Y048177D01*
X009373Y048000D02*
X009727D01*
X009550Y047823D02*
Y048177D01*
X010373Y048000D02*
X010727D01*
X010550Y047823D02*
Y048177D01*
X021112Y042250D02*
X021388D01*
X021250Y042112D02*
Y042388D01*
X018112Y042250D02*
X018388D01*
X018250Y042112D02*
Y042388D01*
X017573Y046100D02*
X017927D01*
X017750Y045923D02*
Y046277D01*
X018573Y046100D02*
X018927D01*
X018750Y045923D02*
Y046277D01*
X014973Y045850D02*
X015327D01*
X015150Y045673D02*
Y046027D01*
X013973Y045850D02*
X014327D01*
X014150Y045673D02*
Y046027D01*
X011962Y041900D02*
X012238D01*
X012100Y041762D02*
Y042038D01*
X014962Y041900D02*
X015238D01*
X015100Y041762D02*
Y042038D01*
X024473Y044850D02*
X024827D01*
X024650Y044673D02*
Y045027D01*
X024473Y045850D02*
X024827D01*
X024650Y045673D02*
Y046027D01*
X007323Y044650D02*
X007677D01*
X007500Y044473D02*
Y044827D01*
X007323Y045650D02*
X007677D01*
X007500Y045473D02*
Y045827D01*
X024473Y041500D02*
X024827D01*
X024650Y041323D02*
Y041677D01*
X024473Y042500D02*
X024827D01*
X024650Y042323D02*
Y042677D01*
X007323Y041200D02*
X007677D01*
X007500Y041023D02*
Y041377D01*
X007323Y042200D02*
X007677D01*
X007500Y042023D02*
Y042377D01*
X024473Y038000D02*
X024827D01*
X024650Y037823D02*
Y038177D01*
X024473Y039000D02*
X024827D01*
X024650Y038823D02*
Y039177D01*
X007323Y037800D02*
X007677D01*
X007500Y037623D02*
Y037977D01*
X007323Y038800D02*
X007677D01*
X007500Y038623D02*
Y038977D01*
X024473Y034500D02*
X024827D01*
X024650Y034323D02*
Y034677D01*
X024473Y035500D02*
X024827D01*
X024650Y035323D02*
Y035677D01*
X007273Y034050D02*
X007627D01*
X007450Y033873D02*
Y034227D01*
X007273Y035050D02*
X007627D01*
X007450Y034873D02*
Y035227D01*
X023573Y031550D02*
X023927D01*
X023750Y031373D02*
Y031727D01*
X024573Y031550D02*
X024927D01*
X024750Y031373D02*
Y031727D01*
X008273Y031500D02*
X008627D01*
X008450Y031323D02*
Y031677D01*
X007273Y031500D02*
X007627D01*
X007450Y031323D02*
Y031677D01*
X020173Y031550D02*
X020527D01*
X020350Y031373D02*
Y031727D01*
X021173Y031550D02*
X021527D01*
X021350Y031373D02*
Y031727D01*
X011623Y031550D02*
X011977D01*
X011800Y031373D02*
Y031727D01*
X010623Y031550D02*
X010977D01*
X010800Y031373D02*
Y031727D01*
X016623Y031600D02*
X016977D01*
X016800Y031423D02*
Y031777D01*
X017623Y031600D02*
X017977D01*
X017800Y031423D02*
Y031777D01*
X014973Y031550D02*
X015327D01*
X015150Y031373D02*
Y031727D01*
X013973Y031550D02*
X014327D01*
X014150Y031373D02*
Y031727D01*
M02*