%FSDAX24Y24*%
%MOIN*%
%SFA1B1*%

%IPPOS*%
%ADD24C,0.005000*%
%ADD25C,0.006700*%
%LNcartepuissance-1*%
%LPD*%
G54D24*
X019550Y047800D02*
Y048200D01*
X019950*
Y047800*
X019550*
X018550D02*
Y048200D01*
X018950*
Y047800*
X018550*
X017550D02*
Y048200D01*
X017950*
Y047800*
X017550*
X024400D02*
Y048200D01*
X024800*
Y047800*
X024400*
X023400D02*
Y048200D01*
X023800*
Y047800*
X023400*
X022400D02*
Y048200D01*
X022800*
Y047800*
X022400*
X012950D02*
Y048200D01*
X013350*
Y047800*
X012950*
X013950D02*
Y048200D01*
X014350*
Y047800*
X013950*
X014950D02*
Y048200D01*
X015350*
Y047800*
X014950*
X008350D02*
Y048200D01*
X008750*
Y047800*
X008350*
X009350D02*
Y048200D01*
X009750*
Y047800*
X009350*
X010350D02*
Y048200D01*
X010750*
Y047800*
X010350*
X017550Y045900D02*
Y046300D01*
X017950*
Y045900*
X017550*
X018550D02*
Y046300D01*
X018950*
Y045900*
X018550*
X014950Y045650D02*
Y046050D01*
X015350*
Y045650*
X014950*
X013950D02*
Y046050D01*
X014350*
Y045650*
X013950*
X024450Y044650D02*
Y045050D01*
X024850*
Y044650*
X024450*
Y045650D02*
Y046050D01*
X024850*
Y045650*
X024450*
X007300Y044450D02*
Y044850D01*
X007700*
Y044450*
X007300*
Y045450D02*
Y045850D01*
X007700*
Y045450*
X007300*
X024450Y041300D02*
Y041700D01*
X024850*
Y041300*
X024450*
Y042300D02*
Y042700D01*
X024850*
Y042300*
X024450*
X007300Y041000D02*
Y041400D01*
X007700*
Y041000*
X007300*
Y042000D02*
Y042400D01*
X007700*
Y042000*
X007300*
X024450Y037800D02*
Y038200D01*
X024850*
Y037800*
X024450*
Y038800D02*
Y039200D01*
X024850*
Y038800*
X024450*
X007300Y037600D02*
Y038000D01*
X007700*
Y037600*
X007300*
Y038600D02*
Y039000D01*
X007700*
Y038600*
X007300*
X024450Y034300D02*
Y034700D01*
X024850*
Y034300*
X024450*
Y035300D02*
Y035700D01*
X024850*
Y035300*
X024450*
X007250Y033850D02*
Y034250D01*
X007650*
Y033850*
X007250*
Y034850D02*
Y035250D01*
X007650*
Y034850*
X007250*
X023550Y031350D02*
Y031750D01*
X023950*
Y031350*
X023550*
X024550D02*
Y031750D01*
X024950*
Y031350*
X024550*
X008250Y031300D02*
Y031700D01*
X008650*
Y031300*
X008250*
X007250D02*
Y031700D01*
X007650*
Y031300*
X007250*
X020150Y031350D02*
Y031750D01*
X020550*
Y031350*
X020150*
X021150D02*
Y031750D01*
X021550*
Y031350*
X021150*
X011600D02*
Y031750D01*
X012000*
Y031350*
X011600*
X010600D02*
Y031750D01*
X011000*
Y031350*
X010600*
X016600Y031400D02*
Y031800D01*
X017000*
Y031400*
X016600*
X017600D02*
Y031800D01*
X018000*
Y031400*
X017600*
X014950Y031350D02*
Y031750D01*
X015350*
Y031350*
X014950*
X013950D02*
Y031750D01*
X014350*
Y031350*
X013950*
G54D25*
X021450Y042250D02*
D01*
X021449Y042263*
X021448Y042277*
X021445Y042291*
X021442Y042305*
X021437Y042318*
X021432Y042331*
X021426Y042343*
X021419Y042355*
X021411Y042367*
X021403Y042378*
X021393Y042388*
X021383Y042398*
X021373Y042407*
X021361Y042415*
X021350Y042423*
X021337Y042429*
X021324Y042435*
X021311Y042440*
X021298Y042444*
X021284Y042446*
X021270Y042448*
X021256Y042449*
X021243*
X021229Y042448*
X021215Y042446*
X021201Y042444*
X021188Y042440*
X021175Y042435*
X021162Y042429*
X021150Y042423*
X021138Y042415*
X021126Y042407*
X021116Y042398*
X021106Y042388*
X021096Y042378*
X021088Y042367*
X021080Y042355*
X021073Y042343*
X021067Y042331*
X021062Y042318*
X021057Y042305*
X021054Y042291*
X021051Y042277*
X021050Y042263*
X021050Y042250*
X021050Y042236*
X021051Y042222*
X021054Y042208*
X021057Y042194*
X021062Y042181*
X021067Y042168*
X021073Y042156*
X021080Y042144*
X021088Y042132*
X021096Y042121*
X021106Y042111*
X021116Y042101*
X021126Y042092*
X021138Y042084*
X021150Y042076*
X021162Y042070*
X021175Y042064*
X021188Y042059*
X021201Y042055*
X021215Y042053*
X021229Y042051*
X021243Y042050*
X021256*
X021270Y042051*
X021284Y042053*
X021298Y042055*
X021311Y042059*
X021324Y042064*
X021337Y042070*
X021350Y042076*
X021361Y042084*
X021373Y042092*
X021383Y042101*
X021393Y042111*
X021403Y042121*
X021411Y042132*
X021419Y042144*
X021426Y042156*
X021432Y042168*
X021437Y042181*
X021442Y042194*
X021445Y042208*
X021448Y042222*
X021449Y042236*
X021450Y042250*
X018450D02*
D01*
X018449Y042263*
X018448Y042277*
X018445Y042291*
X018442Y042305*
X018437Y042318*
X018432Y042331*
X018426Y042343*
X018419Y042355*
X018411Y042367*
X018403Y042378*
X018393Y042388*
X018383Y042398*
X018373Y042407*
X018361Y042415*
X018350Y042423*
X018337Y042429*
X018324Y042435*
X018311Y042440*
X018298Y042444*
X018284Y042446*
X018270Y042448*
X018256Y042449*
X018243*
X018229Y042448*
X018215Y042446*
X018201Y042444*
X018188Y042440*
X018175Y042435*
X018162Y042429*
X018150Y042423*
X018138Y042415*
X018126Y042407*
X018116Y042398*
X018106Y042388*
X018096Y042378*
X018088Y042367*
X018080Y042355*
X018073Y042343*
X018067Y042331*
X018062Y042318*
X018057Y042305*
X018054Y042291*
X018051Y042277*
X018050Y042263*
X018050Y042250*
X018050Y042236*
X018051Y042222*
X018054Y042208*
X018057Y042194*
X018062Y042181*
X018067Y042168*
X018073Y042156*
X018080Y042144*
X018088Y042132*
X018096Y042121*
X018106Y042111*
X018116Y042101*
X018126Y042092*
X018138Y042084*
X018150Y042076*
X018162Y042070*
X018175Y042064*
X018188Y042059*
X018201Y042055*
X018215Y042053*
X018229Y042051*
X018243Y042050*
X018256*
X018270Y042051*
X018284Y042053*
X018298Y042055*
X018311Y042059*
X018324Y042064*
X018337Y042070*
X018350Y042076*
X018361Y042084*
X018373Y042092*
X018383Y042101*
X018393Y042111*
X018403Y042121*
X018411Y042132*
X018419Y042144*
X018426Y042156*
X018432Y042168*
X018437Y042181*
X018442Y042194*
X018445Y042208*
X018448Y042222*
X018449Y042236*
X018450Y042250*
X012300Y041900D02*
D01*
X012299Y041913*
X012298Y041927*
X012295Y041941*
X012292Y041955*
X012287Y041968*
X012282Y041981*
X012276Y041993*
X012269Y042005*
X012261Y042017*
X012253Y042028*
X012243Y042038*
X012233Y042048*
X012223Y042057*
X012211Y042065*
X012200Y042073*
X012187Y042079*
X012174Y042085*
X012161Y042090*
X012148Y042094*
X012134Y042096*
X012120Y042098*
X012106Y042099*
X012093*
X012079Y042098*
X012065Y042096*
X012051Y042094*
X012038Y042090*
X012025Y042085*
X012012Y042079*
X012000Y042073*
X011988Y042065*
X011976Y042057*
X011966Y042048*
X011956Y042038*
X011946Y042028*
X011938Y042017*
X011930Y042005*
X011923Y041993*
X011917Y041981*
X011912Y041968*
X011907Y041955*
X011904Y041941*
X011901Y041927*
X011900Y041913*
X011900Y041900*
X011900Y041886*
X011901Y041872*
X011904Y041858*
X011907Y041844*
X011912Y041831*
X011917Y041818*
X011923Y041806*
X011930Y041794*
X011938Y041782*
X011946Y041771*
X011956Y041761*
X011966Y041751*
X011976Y041742*
X011988Y041734*
X012000Y041726*
X012012Y041720*
X012025Y041714*
X012038Y041709*
X012051Y041705*
X012065Y041703*
X012079Y041701*
X012093Y041700*
X012106*
X012120Y041701*
X012134Y041703*
X012148Y041705*
X012161Y041709*
X012174Y041714*
X012187Y041720*
X012200Y041726*
X012211Y041734*
X012223Y041742*
X012233Y041751*
X012243Y041761*
X012253Y041771*
X012261Y041782*
X012269Y041794*
X012276Y041806*
X012282Y041818*
X012287Y041831*
X012292Y041844*
X012295Y041858*
X012298Y041872*
X012299Y041886*
X012300Y041900*
X015300D02*
D01*
X015299Y041913*
X015298Y041927*
X015295Y041941*
X015292Y041955*
X015287Y041968*
X015282Y041981*
X015276Y041993*
X015269Y042005*
X015261Y042017*
X015253Y042028*
X015243Y042038*
X015233Y042048*
X015223Y042057*
X015211Y042065*
X015200Y042073*
X015187Y042079*
X015174Y042085*
X015161Y042090*
X015148Y042094*
X015134Y042096*
X015120Y042098*
X015106Y042099*
X015093*
X015079Y042098*
X015065Y042096*
X015051Y042094*
X015038Y042090*
X015025Y042085*
X015012Y042079*
X015000Y042073*
X014988Y042065*
X014976Y042057*
X014966Y042048*
X014956Y042038*
X014946Y042028*
X014938Y042017*
X014930Y042005*
X014923Y041993*
X014917Y041981*
X014912Y041968*
X014907Y041955*
X014904Y041941*
X014901Y041927*
X014900Y041913*
X014900Y041900*
X014900Y041886*
X014901Y041872*
X014904Y041858*
X014907Y041844*
X014912Y041831*
X014917Y041818*
X014923Y041806*
X014930Y041794*
X014938Y041782*
X014946Y041771*
X014956Y041761*
X014966Y041751*
X014976Y041742*
X014988Y041734*
X015000Y041726*
X015012Y041720*
X015025Y041714*
X015038Y041709*
X015051Y041705*
X015065Y041703*
X015079Y041701*
X015093Y041700*
X015106*
X015120Y041701*
X015134Y041703*
X015148Y041705*
X015161Y041709*
X015174Y041714*
X015187Y041720*
X015200Y041726*
X015211Y041734*
X015223Y041742*
X015233Y041751*
X015243Y041761*
X015253Y041771*
X015261Y041782*
X015269Y041794*
X015276Y041806*
X015282Y041818*
X015287Y041831*
X015292Y041844*
X015295Y041858*
X015298Y041872*
X015299Y041886*
X015300Y041900*
M02*