M48
;Layer_Color=9474304
;FILE_FORMAT=2:4
INCH
;TYPE=PLATED
T1F00S00C0.0276
T2F00S00C0.0354
%
T01
X012100Y041900
X015100
X018250Y042250
X021250
T02
X007450Y031500
X008450
X010800Y031550
X011800
X014150
X015150
X007450Y034050
Y035050
X007500Y037800
Y038800
Y041200
Y042200
Y044650
Y045650
X014150Y045850
X015150
X017750Y046100
X018750
X024650Y045850
Y044850
Y042500
Y041500
Y039000
Y038000
Y035500
Y034500
X024750Y031550
X023750
X021350
X020350
X017800Y031600
X016800
X017750Y048000
X018750
X019750
X022600
X023600
X024600
X015150
X014150
X013150
X010550
X009550
X008550
M30
