%FSAX24Y24*%
%MOIN*%
G70*
G01*
G75*
G04 Layer_Physical_Order=1*
G04 Layer_Color=255*
%ADD10R,0.0591X0.0591*%
%ADD11C,0.0591*%
%ADD12R,0.0472X0.0472*%
%ADD13C,0.0472*%
%ADD14R,0.0591X0.0591*%
D10*
X019750Y048000D02*
D03*
X024600D02*
D03*
X013150D02*
D03*
X008550D02*
D03*
X017750Y046100D02*
D03*
X015150Y045850D02*
D03*
X023750Y031550D02*
D03*
X008450Y031500D02*
D03*
X020350Y031550D02*
D03*
X011800D02*
D03*
X016800Y031600D02*
D03*
X015150Y031550D02*
D03*
D11*
X018750Y048000D02*
D03*
X017750D02*
D03*
X023600D02*
D03*
X022600D02*
D03*
X014150D02*
D03*
X015150D02*
D03*
X009550D02*
D03*
X010550D02*
D03*
X018750Y046100D02*
D03*
X014150Y045850D02*
D03*
X024650D02*
D03*
X007500Y045650D02*
D03*
X024650Y042500D02*
D03*
X007500Y042200D02*
D03*
X024650Y039000D02*
D03*
X007500Y038800D02*
D03*
X024650Y035500D02*
D03*
X007450Y035050D02*
D03*
X024750Y031550D02*
D03*
X007450Y031500D02*
D03*
X021350Y031550D02*
D03*
X010800D02*
D03*
X017800Y031600D02*
D03*
X014150Y031550D02*
D03*
D12*
X021250Y042250D02*
D03*
X012100Y041900D02*
D03*
D13*
X018250Y042250D02*
D03*
X015100Y041900D02*
D03*
D14*
X024650Y044850D02*
D03*
X007500Y044650D02*
D03*
X024650Y041500D02*
D03*
X007500Y041200D02*
D03*
X024650Y038000D02*
D03*
X007500Y037800D02*
D03*
X024650Y034500D02*
D03*
X007450Y034050D02*
D03*
M02*
