%FSDAX24Y24*%
%MOIN*%
%SFA1B1*%

%IPPOS*%
%ADD10R,0.059100X0.059100*%
%ADD11C,0.059100*%
%ADD12R,0.047200X0.047200*%
%ADD13C,0.047200*%
%ADD14R,0.059100X0.059100*%
%LNcartepuissance-1*%
%LPD*%
G54D10*
X019750Y048000D03*
X024600D03*
X013150D03*
X008550D03*
X017750Y046100D03*
X015150Y045850D03*
X023750Y031550D03*
X008450Y031500D03*
X020350Y031550D03*
X011800D03*
X016800Y031600D03*
X015150Y031550D03*
G54D11*
X018750Y048000D03*
X017750D03*
X023600D03*
X022600D03*
X014150D03*
X015150D03*
X009550D03*
X010550D03*
X018750Y046100D03*
X014150Y045850D03*
X024650D03*
X007500Y045650D03*
X024650Y042500D03*
X007500Y042200D03*
X024650Y039000D03*
X007500Y038800D03*
X024650Y035500D03*
X007450Y035050D03*
X024750Y031550D03*
X007450Y031500D03*
X021350Y031550D03*
X010800D03*
X017800Y031600D03*
X014150Y031550D03*
G54D12*
X021250Y042250D03*
X012100Y041900D03*
G54D13*
X018250Y042250D03*
X015100Y041900D03*
G54D14*
X024650Y044850D03*
X007500Y044650D03*
X024650Y041500D03*
X007500Y041200D03*
X024650Y038000D03*
X007500Y037800D03*
X024650Y034500D03*
X007450Y034050D03*
M02*