%FSAX24Y24*%
%MOIN*%
G70*
G01*
G75*
G04 Layer_Color=2752767*
%ADD10R,0.0433X0.0551*%
%ADD11C,0.0315*%
%ADD12C,0.0100*%
%ADD13C,0.0669*%
%ADD14R,0.0669X0.0669*%
%ADD15R,0.0591X0.0591*%
%ADD16C,0.0591*%
%ADD17R,0.0591X0.0591*%
%ADD18C,0.0500*%
%ADD19C,0.0079*%
%ADD20C,0.0098*%
%ADD21C,0.0236*%
%ADD22C,0.0059*%
%ADD23R,0.0513X0.0631*%
%ADD24C,0.0749*%
%ADD25R,0.0749X0.0749*%
%ADD26R,0.0671X0.0671*%
%ADD27C,0.0671*%
%ADD28R,0.0671X0.0671*%
%ADD29C,0.0580*%
%ADD30C,0.0039*%
%ADD31C,0.0050*%
%ADD32C,0.0067*%
D31*
X022050Y031550D02*
Y031950D01*
X022450D01*
Y031550D01*
X022050D01*
X023050D02*
Y031950D01*
X023450D01*
Y031550D01*
X023050D01*
X024050D02*
Y031950D01*
X024450D01*
Y031550D01*
X024050D01*
X035700Y017100D02*
X035500Y017500D01*
X035900D01*
X035700Y017100D01*
X023400Y023950D02*
X023200Y024350D01*
X023600D01*
X023400Y023950D01*
X022050Y019700D02*
X021850Y020100D01*
X022250D01*
X022050Y019700D01*
Y016150D02*
X021850Y016550D01*
X022250D01*
X022050Y016150D01*
X022250Y030500D02*
X022050Y030900D01*
X022450D01*
X022250Y030500D01*
X023605Y030395D02*
X023405Y030795D01*
X023805D01*
X023605Y030395D01*
X024600Y030300D02*
X024400Y030700D01*
X024800D01*
X024600Y030300D01*
X022250Y032500D02*
X022050Y032900D01*
X022450D01*
X022250Y032500D01*
X024950D02*
X024750Y032900D01*
X025150D01*
X024950Y032500D01*
D32*
X023500Y033800D02*
G03*
X023500Y033800I-000200J000000D01*
G01*
X024500D02*
G03*
X024500Y033800I-000200J000000D01*
G01*
X023650Y014400D02*
G03*
X023650Y014400I-000200J000000D01*
G01*
Y015400D02*
G03*
X023650Y015400I-000200J000000D01*
G01*
Y016400D02*
G03*
X023650Y016400I-000200J000000D01*
G01*
Y017400D02*
G03*
X023650Y017400I-000200J000000D01*
G01*
X025850Y033300D02*
G03*
X025850Y033300I-000200J000000D01*
G01*
Y032300D02*
G03*
X025850Y032300I-000200J000000D01*
G01*
Y031300D02*
G03*
X025850Y031300I-000200J000000D01*
G01*
Y030300D02*
G03*
X025850Y030300I-000200J000000D01*
G01*
Y029300D02*
G03*
X025850Y029300I-000200J000000D01*
G01*
Y028300D02*
G03*
X025850Y028300I-000200J000000D01*
G01*
Y027300D02*
G03*
X025850Y027300I-000200J000000D01*
G01*
Y026300D02*
G03*
X025850Y026300I-000200J000000D01*
G01*
Y025300D02*
G03*
X025850Y025300I-000200J000000D01*
G01*
Y024300D02*
G03*
X025850Y024300I-000200J000000D01*
G01*
Y023300D02*
G03*
X025850Y023300I-000200J000000D01*
G01*
Y022300D02*
G03*
X025850Y022300I-000200J000000D01*
G01*
Y021300D02*
G03*
X025850Y021300I-000200J000000D01*
G01*
Y020300D02*
G03*
X025850Y020300I-000200J000000D01*
G01*
Y019300D02*
G03*
X025850Y019300I-000200J000000D01*
G01*
Y018300D02*
G03*
X025850Y018300I-000200J000000D01*
G01*
Y017300D02*
G03*
X025850Y017300I-000200J000000D01*
G01*
Y016300D02*
G03*
X025850Y016300I-000200J000000D01*
G01*
Y015300D02*
G03*
X025850Y015300I-000200J000000D01*
G01*
Y014300D02*
G03*
X025850Y014300I-000200J000000D01*
G01*
X034850Y033300D02*
G03*
X034850Y033300I-000200J000000D01*
G01*
Y032300D02*
G03*
X034850Y032300I-000200J000000D01*
G01*
Y031300D02*
G03*
X034850Y031300I-000200J000000D01*
G01*
Y030300D02*
G03*
X034850Y030300I-000200J000000D01*
G01*
Y029300D02*
G03*
X034850Y029300I-000200J000000D01*
G01*
Y028300D02*
G03*
X034850Y028300I-000200J000000D01*
G01*
Y027300D02*
G03*
X034850Y027300I-000200J000000D01*
G01*
Y026300D02*
G03*
X034850Y026300I-000200J000000D01*
G01*
Y025300D02*
G03*
X034850Y025300I-000200J000000D01*
G01*
Y024300D02*
G03*
X034850Y024300I-000200J000000D01*
G01*
Y023300D02*
G03*
X034850Y023300I-000200J000000D01*
G01*
Y022300D02*
G03*
X034850Y022300I-000200J000000D01*
G01*
Y021300D02*
G03*
X034850Y021300I-000200J000000D01*
G01*
Y020300D02*
G03*
X034850Y020300I-000200J000000D01*
G01*
Y019300D02*
G03*
X034850Y019300I-000200J000000D01*
G01*
Y018300D02*
G03*
X034850Y018300I-000200J000000D01*
G01*
Y017300D02*
G03*
X034850Y017300I-000200J000000D01*
G01*
Y016300D02*
G03*
X034850Y016300I-000200J000000D01*
G01*
Y015300D02*
G03*
X034850Y015300I-000200J000000D01*
G01*
Y014300D02*
G03*
X034850Y014300I-000200J000000D01*
G01*
X037150Y019300D02*
G03*
X037150Y019300I-000200J000000D01*
G01*
Y018300D02*
G03*
X037150Y018300I-000200J000000D01*
G01*
Y017300D02*
G03*
X037150Y017300I-000200J000000D01*
G01*
Y016300D02*
G03*
X037150Y016300I-000200J000000D01*
G01*
X023700Y019900D02*
G03*
X023700Y019900I-000200J000000D01*
G01*
Y020900D02*
G03*
X023700Y020900I-000200J000000D01*
G01*
Y021900D02*
G03*
X023700Y021900I-000200J000000D01*
G01*
Y022900D02*
G03*
X023700Y022900I-000200J000000D01*
G01*
X023600Y025200D02*
G03*
X023600Y025200I-000200J000000D01*
G01*
Y026200D02*
G03*
X023600Y026200I-000200J000000D01*
G01*
Y027200D02*
G03*
X023600Y027200I-000200J000000D01*
G01*
Y028200D02*
G03*
X023600Y028200I-000200J000000D01*
G01*
M02*
