M48
;Layer_Color=9474304
;FILE_FORMAT=2:4
INCH
;TYPE=PLATED
T1F00S00C0.0280
T2F00S00C0.0354
T3F00S00C0.0433
%
T01
X035700Y017300
X022050Y016350
Y019900
X023400Y024150
X023605Y030595
X024600Y030500
X022250Y030700
Y032700
X024950
T02
X023450Y014400
Y015400
X025650Y015300
Y014300
X034650
Y015300
Y016300
Y017300
Y018300
Y019300
Y020300
Y021300
Y022300
Y023300
Y024300
Y025300
Y026300
Y027300
Y028300
Y029300
Y030300
X036950Y019300
Y018300
Y017300
Y016300
X025650
Y017300
Y018300
Y019300
Y020300
Y021300
Y022300
Y023300
Y024300
Y025300
Y026300
Y027300
Y028300
Y029300
Y030300
X023400Y028200
Y027200
Y026200
Y025200
X023500Y022900
Y021900
Y020900
Y019900
X023450Y017400
Y016400
X025650Y031300
Y032300
Y033300
X024300Y033800
X023300
X034650Y033300
Y032300
Y031300
T03
X022250Y031750
X023250
X024250
M30
