%FSAX24Y24*%
%MOIN*%
G70*
G01*
G75*
%ADD10R,0.0433X0.0551*%
%ADD11C,0.0315*%
%ADD12C,0.0100*%
%ADD13C,0.0669*%
%ADD14R,0.0669X0.0669*%
%ADD15R,0.0591X0.0591*%
%ADD16C,0.0591*%
%ADD17R,0.0591X0.0591*%
%ADD18C,0.0500*%
%ADD19C,0.0079*%
%ADD20C,0.0098*%
%ADD21C,0.0236*%
%ADD22C,0.0059*%
D12*
X021260Y033760D02*
Y034360D01*
X021560D01*
X021660Y034260D01*
Y034060D01*
X021560Y033960D01*
X021260D01*
X021460D02*
X021660Y033760D01*
X022160D02*
X021960D01*
X021860Y033860D01*
Y034060D01*
X021960Y034160D01*
X022160D01*
X022260Y034060D01*
Y033960D01*
X021860D01*
X022660Y033560D02*
X022760D01*
X022859Y033660D01*
Y034160D01*
X022560D01*
X022460Y034060D01*
Y033860D01*
X022560Y033760D01*
X022859D01*
X023059Y034160D02*
Y033860D01*
X023159Y033760D01*
X023459D01*
Y034160D01*
X024059Y034360D02*
X023659D01*
Y034060D01*
X023859Y034160D01*
X023959D01*
X024059Y034060D01*
Y033860D01*
X023959Y033760D01*
X023759D01*
X023659Y033860D01*
X024259Y034360D02*
Y033960D01*
X024459Y033760D01*
X024659Y033960D01*
Y034360D01*
X025415Y034575D02*
Y035175D01*
X025615Y034975D01*
X025815Y035175D01*
Y034575D01*
X026015Y035175D02*
Y034575D01*
X026315D01*
X026415Y034675D01*
Y034775D01*
X026315Y034875D01*
X026015D01*
X026315D01*
X026415Y034975D01*
Y035075D01*
X026315Y035175D01*
X026015D01*
X026915Y034575D02*
X026715D01*
X026615Y034675D01*
Y034875D01*
X026715Y034975D01*
X026915D01*
X027014Y034875D01*
Y034775D01*
X026615D01*
X027614Y035175D02*
Y034575D01*
X027314D01*
X027214Y034675D01*
Y034875D01*
X027314Y034975D01*
X027614D01*
X023060Y024340D02*
X023260D01*
X023160D01*
Y023740D01*
X023060D01*
X023260D01*
X023960D02*
X023560D01*
X023960Y024140D01*
Y024240D01*
X023860Y024340D01*
X023660D01*
X023560Y024240D01*
X024560D02*
X024460Y024340D01*
X024260D01*
X024160Y024240D01*
Y023840D01*
X024260Y023740D01*
X024460D01*
X024560Y023840D01*
X024759Y024040D02*
X025159D01*
X025759Y023740D02*
X025359D01*
X025759Y024140D01*
Y024240D01*
X025659Y024340D01*
X025459D01*
X025359Y024240D01*
X022400Y028100D02*
X022600D01*
X022500D01*
Y027500D01*
X022400D01*
X022600D01*
X023300D02*
X022900D01*
X023300Y027900D01*
Y028000D01*
X023200Y028100D01*
X023000D01*
X022900Y028000D01*
X023900D02*
X023800Y028100D01*
X023600D01*
X023500Y028000D01*
Y027600D01*
X023600Y027500D01*
X023800D01*
X023900Y027600D01*
X024099Y027800D02*
X024499D01*
X024699Y027500D02*
X024899D01*
X024799D01*
Y028100D01*
X024699Y028000D01*
X022280Y031030D02*
X022180Y031130D01*
X021980D01*
X021880Y031030D01*
Y030630D01*
X021980Y030530D01*
X022180D01*
X022280Y030630D01*
X022480Y030530D02*
Y031130D01*
X022780D01*
X022880Y031030D01*
Y030830D01*
X022780Y030730D01*
X022480D01*
X022680D02*
X022880Y030530D01*
X023380D02*
X023180D01*
X023080Y030630D01*
Y030830D01*
X023180Y030930D01*
X023380D01*
X023479Y030830D01*
Y030730D01*
X023080D01*
X023879Y030330D02*
X023979D01*
X024079Y030430D01*
Y030930D01*
X023779D01*
X023679Y030830D01*
Y030630D01*
X023779Y030530D01*
X024079D01*
X024279Y030930D02*
Y030630D01*
X024379Y030530D01*
X024679D01*
Y030930D01*
X025279Y031130D02*
X024879D01*
Y030830D01*
X025079Y030930D01*
X025179D01*
X025279Y030830D01*
Y030630D01*
X025179Y030530D01*
X024979D01*
X024879Y030630D01*
X025479Y031130D02*
Y030730D01*
X025679Y030530D01*
X025879Y030730D01*
Y031130D01*
X026479Y030530D02*
X026079D01*
X026479Y030930D01*
Y031030D01*
X026379Y031130D01*
X026179D01*
X026079Y031030D01*
X023830D02*
X023730Y031130D01*
X023530D01*
X023430Y031030D01*
Y030630D01*
X023530Y030530D01*
X023730D01*
X023830Y030630D01*
X024030Y030530D02*
Y031130D01*
X024330D01*
X024430Y031030D01*
Y030830D01*
X024330Y030730D01*
X024030D01*
X024230D02*
X024430Y030530D01*
X024930D02*
X024730D01*
X024630Y030630D01*
Y030830D01*
X024730Y030930D01*
X024930D01*
X025029Y030830D01*
Y030730D01*
X024630D01*
X025429Y030330D02*
X025529D01*
X025629Y030430D01*
Y030930D01*
X025329D01*
X025229Y030830D01*
Y030630D01*
X025329Y030530D01*
X025629D01*
X025829Y030930D02*
Y030630D01*
X025929Y030530D01*
X026229D01*
Y030930D01*
X026829Y031130D02*
X026429D01*
Y030830D01*
X026629Y030930D01*
X026729D01*
X026829Y030830D01*
Y030630D01*
X026729Y030530D01*
X026529D01*
X026429Y030630D01*
X027029Y031130D02*
Y030730D01*
X027229Y030530D01*
X027429Y030730D01*
Y031130D01*
X027629Y030530D02*
X027829D01*
X027729D01*
Y031130D01*
X027629Y031030D01*
X023410Y018740D02*
X023310Y018840D01*
X023110D01*
X023010Y018740D01*
Y018340D01*
X023110Y018240D01*
X023310D01*
X023410Y018340D01*
X023710Y018240D02*
X023910D01*
X024010Y018340D01*
Y018540D01*
X023910Y018640D01*
X023710D01*
X023610Y018540D01*
Y018340D01*
X023710Y018240D01*
X024609Y018840D02*
Y018240D01*
X024310D01*
X024210Y018340D01*
Y018540D01*
X024310Y018640D01*
X024609D01*
X025109Y018240D02*
X024909D01*
X024809Y018340D01*
Y018540D01*
X024909Y018640D01*
X025109D01*
X025209Y018540D01*
Y018440D01*
X024809D01*
X025409Y018640D02*
Y018340D01*
X025509Y018240D01*
X025809D01*
Y018640D01*
X026009D02*
Y018240D01*
Y018440D01*
X026109Y018540D01*
X026209Y018640D01*
X026309D01*
X027009Y018740D02*
X026909Y018840D01*
X026709D01*
X026609Y018740D01*
Y018340D01*
X026709Y018240D01*
X026909D01*
X027009Y018340D01*
Y018540D01*
X026809D01*
X036915Y020635D02*
X036815Y020735D01*
X036615D01*
X036515Y020635D01*
Y020235D01*
X036615Y020135D01*
X036815D01*
X036915Y020235D01*
X037215Y020135D02*
X037415D01*
X037515Y020235D01*
Y020435D01*
X037415Y020535D01*
X037215D01*
X037115Y020435D01*
Y020235D01*
X037215Y020135D01*
X038114Y020735D02*
Y020135D01*
X037815D01*
X037715Y020235D01*
Y020435D01*
X037815Y020535D01*
X038114D01*
X038614Y020135D02*
X038414D01*
X038314Y020235D01*
Y020435D01*
X038414Y020535D01*
X038614D01*
X038714Y020435D01*
Y020335D01*
X038314D01*
X038914Y020535D02*
Y020235D01*
X039014Y020135D01*
X039314D01*
Y020535D01*
X039514D02*
Y020135D01*
Y020335D01*
X039614Y020435D01*
X039714Y020535D01*
X039814D01*
X040114Y020735D02*
Y020135D01*
X040414D01*
X040514Y020235D01*
Y020635D01*
X040414Y020735D01*
X040114D01*
X022860Y034640D02*
Y035040D01*
X023060Y035240D01*
X023260Y035040D01*
Y034640D01*
Y034940D01*
X022860D01*
X023460Y034640D02*
X023660D01*
X023560D01*
Y035240D01*
X023460D01*
X023960Y034640D02*
X024160D01*
X024060D01*
Y035040D01*
X023960D01*
X024459Y034640D02*
Y035040D01*
X024559D01*
X024659Y034940D01*
Y034640D01*
Y034940D01*
X024759Y035040D01*
X024859Y034940D01*
Y034640D01*
D19*
X029900Y034233D02*
G03*
X030400Y034233I000250J000000D01*
G01*
X021203Y030805D02*
X025297D01*
X025297Y030608D02*
Y032419D01*
X021203D02*
X025297D01*
X021203Y030608D02*
Y032419D01*
Y030608D02*
X025297D01*
X024800Y033300D02*
Y034300D01*
X022800Y033300D02*
X024800D01*
X022800D02*
Y034300D01*
X024800D01*
X022950Y017900D02*
X023950D01*
Y013900D02*
Y017900D01*
X022950Y013900D02*
Y017900D01*
Y013900D02*
X023950D01*
X027611Y013367D02*
Y034233D01*
X032689Y013367D02*
Y034233D01*
X027611D02*
X029900D01*
X030400D02*
X032689D01*
X027611Y013367D02*
X032689D01*
X036450Y015800D02*
X037450D01*
X036450D02*
Y019800D01*
X037450Y015800D02*
Y019800D01*
X036450D02*
X037450D01*
X023000Y023400D02*
X024000D01*
Y019400D02*
Y023400D01*
X023000Y019400D02*
Y023400D01*
Y019400D02*
X024000D01*
X022900Y028700D02*
X023900D01*
Y024700D02*
Y028700D01*
X022900Y024700D02*
Y028700D01*
Y024700D02*
X023900D01*
D20*
X027199Y033812D02*
G03*
X027199Y033812I-000049J000000D01*
G01*
D21*
X028122Y033839D02*
G03*
X028122Y033839I-000118J000000D01*
G01*
D22*
X024348Y033197D02*
X024152D01*
X024250D01*
Y032606D01*
X024348Y032705D01*
X022053Y033197D02*
X022447D01*
X022053Y032803D01*
Y032705D01*
X022152Y032606D01*
X022348D01*
X022447Y032705D01*
X023447D02*
X023348Y032606D01*
X023152D01*
X023053Y032705D01*
Y032803D01*
X023152Y032902D01*
X023250D01*
X023152D01*
X023053Y033000D01*
Y033098D01*
X023152Y033197D01*
X023348D01*
X023447Y033098D01*
M02*
