%FSAX24Y24*%
%MOIN*%
G70*
G01*
G75*
G04 Layer_Physical_Order=1*
G04 Layer_Color=255*
%ADD10R,0.0433X0.0551*%
%ADD11C,0.0315*%
%ADD12C,0.0100*%
%ADD13C,0.0669*%
%ADD14R,0.0669X0.0669*%
%ADD15R,0.0591X0.0591*%
%ADD16C,0.0591*%
%ADD17R,0.0591X0.0591*%
%ADD18C,0.0500*%
G36*
X035695Y019358D02*
X035706D01*
X035717Y019357D01*
X035730Y019356D01*
X035756Y019351D01*
X035784Y019345D01*
X035812Y019337D01*
X035836Y019327D01*
X035837D01*
X035838Y019326D01*
X035846Y019321D01*
X035857Y019313D01*
X035870Y019303D01*
X035885Y019290D01*
X035900Y019274D01*
X035915Y019255D01*
X035929Y019233D01*
Y019232D01*
X035930Y019231D01*
X035933Y019228D01*
X035934Y019223D01*
X035940Y019210D01*
X035945Y019194D01*
X035952Y019175D01*
X035957Y019153D01*
X035962Y019128D01*
X035963Y019102D01*
Y019101D01*
Y019097D01*
Y019090D01*
X035962Y019082D01*
X035960Y019073D01*
X035959Y019062D01*
X035957Y019049D01*
X035953Y019035D01*
X035944Y019006D01*
X035938Y018990D01*
X035932Y018975D01*
X035923Y018959D01*
X035913Y018944D01*
X035902Y018929D01*
X035889Y018915D01*
X035888Y018914D01*
X035885Y018912D01*
X035881Y018908D01*
X035875Y018905D01*
X035867Y018899D01*
X035858Y018893D01*
X035847Y018886D01*
X035835Y018881D01*
X035820Y018874D01*
X035805Y018867D01*
X035786Y018861D01*
X035768Y018856D01*
X035747Y018852D01*
X035725Y018848D01*
X035701Y018846D01*
X035676Y018845D01*
X035669D01*
X035661Y018846D01*
X035650D01*
X035638Y018847D01*
X035624Y018849D01*
X035608Y018852D01*
X035590Y018855D01*
X035572Y018860D01*
X035553Y018866D01*
X035535Y018873D01*
X035516Y018881D01*
X035498Y018890D01*
X035481Y018901D01*
X035465Y018914D01*
X035450Y018929D01*
X035448Y018930D01*
X035447Y018932D01*
X035444Y018936D01*
X035440Y018942D01*
X035436Y018949D01*
X035430Y018957D01*
X035424Y018966D01*
X035418Y018977D01*
X035414Y018989D01*
X035408Y019002D01*
X035398Y019032D01*
X035391Y019065D01*
X035390Y019084D01*
X035388Y019102D01*
Y019103D01*
Y019107D01*
Y019112D01*
X035390Y019120D01*
X035391Y019131D01*
X035392Y019141D01*
X035394Y019154D01*
X035398Y019168D01*
X035407Y019196D01*
X035413Y019211D01*
X035420Y019228D01*
X035429Y019243D01*
X035439Y019258D01*
X035451Y019273D01*
X035463Y019286D01*
X035465Y019288D01*
X035467Y019290D01*
X035472Y019293D01*
X035477Y019298D01*
X035484Y019304D01*
X035493Y019310D01*
X035505Y019316D01*
X035516Y019323D01*
X035530Y019329D01*
X035546Y019336D01*
X035563Y019342D01*
X035581Y019348D01*
X035601Y019352D01*
X035623Y019356D01*
X035644Y019358D01*
X035669Y019359D01*
X035686D01*
X035695Y019358D01*
D02*
G37*
G36*
X025100Y015673D02*
X025032D01*
X025033Y015671D01*
X025035Y015670D01*
X025039Y015667D01*
X025045Y015662D01*
X025050Y015658D01*
X025057Y015651D01*
X025064Y015643D01*
X025072Y015633D01*
X025079Y015623D01*
X025087Y015611D01*
X025094Y015599D01*
X025100Y015586D01*
X025106Y015571D01*
X025109Y015555D01*
X025112Y015538D01*
X025113Y015519D01*
Y015518D01*
Y015516D01*
Y015512D01*
X025112Y015508D01*
X025110Y015495D01*
X025108Y015480D01*
X025103Y015460D01*
X025098Y015441D01*
X025088Y015419D01*
X025077Y015398D01*
Y015397D01*
X025076Y015396D01*
X025070Y015389D01*
X025062Y015380D01*
X025050Y015367D01*
X025037Y015354D01*
X025019Y015339D01*
X025000Y015327D01*
X024977Y015314D01*
X024975D01*
X024973Y015313D01*
X024970Y015312D01*
X024965Y015309D01*
X024959Y015307D01*
X024951Y015305D01*
X024933Y015299D01*
X024911Y015293D01*
X024886Y015289D01*
X024858Y015285D01*
X024827Y015284D01*
X024813D01*
X024806Y015285D01*
X024797D01*
X024777Y015287D01*
X024754Y015291D01*
X024730Y015296D01*
X024703Y015301D01*
X024678Y015311D01*
X024677D01*
X024675Y015312D01*
X024671Y015314D01*
X024666Y015316D01*
X024655Y015322D01*
X024640Y015331D01*
X024623Y015343D01*
X024605Y015357D01*
X024589Y015373D01*
X024574Y015392D01*
Y015394D01*
X024573Y015395D01*
X024568Y015402D01*
X024563Y015413D01*
X024556Y015428D01*
X024550Y015447D01*
X024544Y015467D01*
X024540Y015490D01*
X024538Y015515D01*
Y015516D01*
Y015517D01*
Y015523D01*
X024540Y015532D01*
X024541Y015545D01*
X024544Y015557D01*
X024548Y015572D01*
X024553Y015587D01*
X024560Y015602D01*
X024562Y015605D01*
X024564Y015609D01*
X024568Y015616D01*
X024575Y015625D01*
X024582Y015635D01*
X024592Y015646D01*
X024603Y015656D01*
X024615Y015666D01*
X024342D01*
Y015759D01*
X025100D01*
Y015673D01*
D02*
G37*
G36*
X024845Y015208D02*
X024856D01*
X024867Y015207D01*
X024880Y015206D01*
X024906Y015201D01*
X024934Y015195D01*
X024962Y015187D01*
X024986Y015177D01*
X024987D01*
X024988Y015176D01*
X024996Y015171D01*
X025007Y015163D01*
X025020Y015153D01*
X025035Y015140D01*
X025050Y015124D01*
X025065Y015105D01*
X025079Y015083D01*
Y015082D01*
X025080Y015081D01*
X025083Y015078D01*
X025084Y015073D01*
X025090Y015060D01*
X025095Y015044D01*
X025102Y015025D01*
X025107Y015003D01*
X025112Y014978D01*
X025113Y014952D01*
Y014951D01*
Y014947D01*
Y014940D01*
X025112Y014932D01*
X025110Y014923D01*
X025109Y014912D01*
X025107Y014899D01*
X025103Y014885D01*
X025094Y014856D01*
X025088Y014840D01*
X025082Y014825D01*
X025073Y014809D01*
X025063Y014794D01*
X025052Y014779D01*
X025039Y014765D01*
X025038Y014764D01*
X025035Y014762D01*
X025031Y014758D01*
X025025Y014755D01*
X025017Y014749D01*
X025008Y014743D01*
X024997Y014736D01*
X024985Y014731D01*
X024970Y014724D01*
X024955Y014717D01*
X024936Y014711D01*
X024918Y014706D01*
X024897Y014702D01*
X024875Y014698D01*
X024851Y014696D01*
X024826Y014695D01*
X024819D01*
X024811Y014696D01*
X024800D01*
X024788Y014697D01*
X024774Y014699D01*
X024758Y014702D01*
X024740Y014705D01*
X024722Y014710D01*
X024703Y014716D01*
X024685Y014723D01*
X024666Y014731D01*
X024648Y014740D01*
X024631Y014751D01*
X024615Y014764D01*
X024600Y014779D01*
X024598Y014780D01*
X024597Y014782D01*
X024594Y014786D01*
X024590Y014792D01*
X024586Y014799D01*
X024580Y014807D01*
X024574Y014816D01*
X024568Y014827D01*
X024564Y014839D01*
X024558Y014852D01*
X024548Y014882D01*
X024541Y014915D01*
X024540Y014934D01*
X024538Y014952D01*
Y014953D01*
Y014957D01*
Y014962D01*
X024540Y014970D01*
X024541Y014981D01*
X024542Y014991D01*
X024544Y015004D01*
X024548Y015018D01*
X024557Y015046D01*
X024563Y015061D01*
X024570Y015078D01*
X024579Y015093D01*
X024589Y015108D01*
X024601Y015123D01*
X024613Y015136D01*
X024615Y015138D01*
X024617Y015140D01*
X024622Y015143D01*
X024627Y015148D01*
X024634Y015154D01*
X024643Y015159D01*
X024655Y015166D01*
X024666Y015173D01*
X024680Y015179D01*
X024696Y015186D01*
X024713Y015192D01*
X024731Y015198D01*
X024751Y015202D01*
X024773Y015206D01*
X024794Y015208D01*
X024819Y015209D01*
X024836D01*
X024845Y015208D01*
D02*
G37*
G36*
X025100Y016853D02*
X025020D01*
X025022Y016852D01*
X025024Y016850D01*
X025029Y016846D01*
X025034Y016842D01*
X025042Y016835D01*
X025049Y016827D01*
X025058Y016818D01*
X025067Y016807D01*
X025075Y016796D01*
X025084Y016783D01*
X025091Y016768D01*
X025098Y016753D01*
X025105Y016736D01*
X025109Y016718D01*
X025112Y016699D01*
X025113Y016679D01*
Y016677D01*
Y016671D01*
X025112Y016662D01*
X025110Y016649D01*
X025108Y016635D01*
X025105Y016620D01*
X025100Y016604D01*
X025094Y016588D01*
X025093Y016586D01*
X025091Y016581D01*
X025087Y016574D01*
X025082Y016565D01*
X025075Y016555D01*
X025067Y016544D01*
X025058Y016535D01*
X025048Y016526D01*
X025047Y016525D01*
X025043Y016522D01*
X025037Y016519D01*
X025029Y016515D01*
X025018Y016510D01*
X025007Y016505D01*
X024994Y016500D01*
X024979Y016497D01*
X024978D01*
X024973Y016496D01*
X024967D01*
X024958Y016495D01*
X024945Y016494D01*
X024931D01*
X024913Y016492D01*
X024551D01*
Y016586D01*
X024881D01*
X024896Y016587D01*
X024912D01*
X024928Y016588D01*
X024943Y016589D01*
X024955Y016590D01*
X024956D01*
X024960Y016593D01*
X024967Y016595D01*
X024975Y016598D01*
X024985Y016603D01*
X024995Y016610D01*
X025004Y016618D01*
X025012Y016627D01*
X025014Y016628D01*
X025016Y016633D01*
X025019Y016639D01*
X025023Y016647D01*
X025026Y016657D01*
X025030Y016669D01*
X025032Y016683D01*
X025033Y016698D01*
Y016700D01*
Y016705D01*
X025032Y016713D01*
X025031Y016723D01*
X025029Y016734D01*
X025024Y016747D01*
X025019Y016761D01*
X025012Y016775D01*
X025011Y016776D01*
X025008Y016781D01*
X025003Y016788D01*
X024996Y016796D01*
X024988Y016804D01*
X024978Y016813D01*
X024966Y016820D01*
X024954Y016827D01*
X024951Y016828D01*
X024947Y016829D01*
X024939Y016831D01*
X024926Y016835D01*
X024911Y016838D01*
X024892Y016841D01*
X024871Y016842D01*
X024846Y016843D01*
X024551D01*
Y016936D01*
X025100D01*
Y016853D01*
D02*
G37*
G36*
X035716Y018768D02*
X035722Y018765D01*
X035731Y018763D01*
X035740Y018758D01*
X035753Y018754D01*
X035766Y018749D01*
X035779Y018742D01*
X035810Y018727D01*
X035842Y018706D01*
X035872Y018683D01*
X035885Y018670D01*
X035898Y018655D01*
X035899Y018653D01*
X035900Y018651D01*
X035904Y018647D01*
X035908Y018640D01*
X035913Y018632D01*
X035919Y018622D01*
X035925Y018612D01*
X035930Y018599D01*
X035936Y018585D01*
X035942Y018570D01*
X035948Y018553D01*
X035952Y018536D01*
X035960Y018498D01*
X035962Y018477D01*
X035963Y018455D01*
Y018454D01*
Y018449D01*
Y018444D01*
X035962Y018434D01*
Y018424D01*
X035960Y018412D01*
X035958Y018399D01*
X035957Y018385D01*
X035950Y018353D01*
X035942Y018319D01*
X035929Y018287D01*
X035922Y018271D01*
X035913Y018256D01*
X035912Y018254D01*
X035911Y018252D01*
X035907Y018249D01*
X035904Y018243D01*
X035892Y018229D01*
X035876Y018213D01*
X035857Y018193D01*
X035831Y018175D01*
X035802Y018155D01*
X035769Y018139D01*
X035768D01*
X035764Y018138D01*
X035760Y018136D01*
X035753Y018133D01*
X035744Y018130D01*
X035733Y018127D01*
X035722Y018123D01*
X035708Y018120D01*
X035694Y018116D01*
X035678Y018113D01*
X035643Y018106D01*
X035606Y018101D01*
X035566Y018100D01*
X035555D01*
X035546Y018101D01*
X035536D01*
X035523Y018102D01*
X035511Y018103D01*
X035496Y018106D01*
X035463Y018112D01*
X035429Y018118D01*
X035393Y018130D01*
X035360Y018145D01*
X035359D01*
X035356Y018147D01*
X035352Y018150D01*
X035345Y018153D01*
X035338Y018158D01*
X035330Y018163D01*
X035310Y018178D01*
X035288Y018196D01*
X035266Y018218D01*
X035244Y018244D01*
X035226Y018273D01*
Y018274D01*
X035224Y018276D01*
X035221Y018281D01*
X035219Y018288D01*
X035216Y018295D01*
X035211Y018304D01*
X035207Y018316D01*
X035203Y018327D01*
X035198Y018340D01*
X035195Y018354D01*
X035187Y018385D01*
X035182Y018419D01*
X035180Y018456D01*
Y018457D01*
Y018461D01*
Y018468D01*
X035181Y018476D01*
X035182Y018485D01*
X035183Y018497D01*
X035184Y018509D01*
X035187Y018523D01*
X035194Y018553D01*
X035204Y018585D01*
X035211Y018602D01*
X035219Y018618D01*
X035228Y018633D01*
X035239Y018648D01*
X035240Y018649D01*
X035241Y018651D01*
X035244Y018655D01*
X035249Y018660D01*
X035255Y018666D01*
X035263Y018674D01*
X035271Y018682D01*
X035280Y018690D01*
X035292Y018700D01*
X035303Y018708D01*
X035317Y018717D01*
X035332Y018726D01*
X035347Y018734D01*
X035364Y018742D01*
X035401Y018756D01*
X035424Y018657D01*
X035423D01*
X035421Y018656D01*
X035416Y018655D01*
X035410Y018652D01*
X035403Y018649D01*
X035395Y018645D01*
X035378Y018637D01*
X035359Y018627D01*
X035338Y018613D01*
X035319Y018598D01*
X035303Y018580D01*
X035302Y018577D01*
X035297Y018570D01*
X035292Y018560D01*
X035284Y018545D01*
X035277Y018528D01*
X035271Y018506D01*
X035266Y018482D01*
X035265Y018454D01*
Y018453D01*
Y018451D01*
Y018446D01*
X035266Y018440D01*
Y018432D01*
X035267Y018424D01*
X035271Y018403D01*
X035275Y018380D01*
X035284Y018356D01*
X035294Y018332D01*
X035308Y018309D01*
Y018308D01*
X035310Y018306D01*
X035316Y018299D01*
X035325Y018289D01*
X035338Y018276D01*
X035354Y018264D01*
X035372Y018250D01*
X035395Y018237D01*
X035421Y018227D01*
X035422D01*
X035424Y018226D01*
X035428Y018225D01*
X035433Y018223D01*
X035439Y018221D01*
X035447Y018220D01*
X035466Y018215D01*
X035488Y018211D01*
X035512Y018207D01*
X035538Y018205D01*
X035566Y018204D01*
X035582D01*
X035590Y018205D01*
X035601D01*
X035611Y018206D01*
X035623Y018207D01*
X035649Y018211D01*
X035678Y018215D01*
X035707Y018222D01*
X035734Y018231D01*
X035736D01*
X035738Y018233D01*
X035741Y018235D01*
X035746Y018237D01*
X035760Y018243D01*
X035775Y018252D01*
X035793Y018265D01*
X035810Y018280D01*
X035828Y018297D01*
X035843Y018318D01*
Y018319D01*
X035844Y018320D01*
X035846Y018324D01*
X035849Y018328D01*
X035853Y018341D01*
X035860Y018357D01*
X035866Y018376D01*
X035872Y018397D01*
X035876Y018422D01*
X035877Y018447D01*
Y018448D01*
Y018451D01*
Y018455D01*
X035876Y018461D01*
Y018468D01*
X035875Y018477D01*
X035872Y018497D01*
X035866Y018519D01*
X035857Y018543D01*
X035845Y018566D01*
X035829Y018589D01*
X035828Y018590D01*
X035827Y018591D01*
X035820Y018598D01*
X035808Y018608D01*
X035793Y018621D01*
X035772Y018634D01*
X035748Y018648D01*
X035718Y018659D01*
X035685Y018668D01*
X035710Y018769D01*
X035711D01*
X035716Y018768D01*
D02*
G37*
G36*
X024850Y016379D02*
Y015971D01*
X024853D01*
X024859Y015972D01*
X024865D01*
X024873Y015974D01*
X024881Y015975D01*
X024902Y015979D01*
X024924Y015986D01*
X024947Y015994D01*
X024970Y016007D01*
X024989Y016022D01*
X024992Y016024D01*
X024996Y016030D01*
X025004Y016040D01*
X025012Y016053D01*
X025022Y016070D01*
X025030Y016090D01*
X025034Y016112D01*
X025037Y016136D01*
Y016137D01*
Y016138D01*
Y016145D01*
X025035Y016155D01*
X025033Y016166D01*
X025030Y016180D01*
X025025Y016195D01*
X025019Y016210D01*
X025010Y016224D01*
X025009Y016225D01*
X025004Y016229D01*
X024999Y016236D01*
X024988Y016244D01*
X024977Y016254D01*
X024962Y016263D01*
X024943Y016272D01*
X024922Y016281D01*
X024935Y016377D01*
X024936D01*
X024939Y016376D01*
X024943Y016375D01*
X024949Y016372D01*
X024956Y016370D01*
X024964Y016367D01*
X024984Y016357D01*
X025004Y016346D01*
X025026Y016332D01*
X025048Y016314D01*
X025067Y016293D01*
Y016292D01*
X025069Y016291D01*
X025071Y016287D01*
X025073Y016281D01*
X025077Y016276D01*
X025082Y016269D01*
X025085Y016261D01*
X025090Y016250D01*
X025098Y016228D01*
X025106Y016201D01*
X025110Y016171D01*
X025113Y016136D01*
Y016135D01*
Y016130D01*
Y016125D01*
X025112Y016116D01*
X025110Y016106D01*
X025109Y016095D01*
X025107Y016082D01*
X025103Y016067D01*
X025094Y016037D01*
X025088Y016021D01*
X025082Y016006D01*
X025073Y015990D01*
X025063Y015975D01*
X025052Y015960D01*
X025039Y015946D01*
X025038Y015945D01*
X025035Y015942D01*
X025031Y015939D01*
X025025Y015935D01*
X025018Y015930D01*
X025009Y015924D01*
X024997Y015917D01*
X024985Y015911D01*
X024971Y015904D01*
X024956Y015897D01*
X024939Y015892D01*
X024920Y015887D01*
X024901Y015882D01*
X024879Y015879D01*
X024856Y015877D01*
X024831Y015876D01*
X024818D01*
X024808Y015877D01*
X024797Y015878D01*
X024783Y015879D01*
X024768Y015881D01*
X024752Y015885D01*
X024717Y015893D01*
X024700Y015899D01*
X024681Y015905D01*
X024664Y015914D01*
X024647Y015923D01*
X024631Y015933D01*
X024616Y015946D01*
X024615Y015947D01*
X024612Y015949D01*
X024609Y015953D01*
X024603Y015959D01*
X024597Y015965D01*
X024592Y015975D01*
X024585Y015984D01*
X024577Y015995D01*
X024570Y016008D01*
X024563Y016022D01*
X024557Y016037D01*
X024550Y016054D01*
X024545Y016072D01*
X024542Y016090D01*
X024540Y016110D01*
X024538Y016130D01*
Y016131D01*
Y016135D01*
Y016141D01*
X024540Y016149D01*
X024541Y016158D01*
X024542Y016170D01*
X024544Y016181D01*
X024548Y016195D01*
X024557Y016223D01*
X024563Y016238D01*
X024571Y016253D01*
X024579Y016268D01*
X024589Y016283D01*
X024601Y016296D01*
X024615Y016310D01*
X024616Y016311D01*
X024618Y016314D01*
X024623Y016317D01*
X024628Y016322D01*
X024636Y016326D01*
X024646Y016332D01*
X024656Y016339D01*
X024669Y016346D01*
X024684Y016352D01*
X024699Y016359D01*
X024716Y016364D01*
X024736Y016370D01*
X024755Y016374D01*
X024777Y016377D01*
X024800Y016379D01*
X024826Y016381D01*
X024839D01*
X024850Y016379D01*
D02*
G37*
G36*
X035505Y021496D02*
X035504Y021494D01*
X035501Y021490D01*
X035498Y021483D01*
X035495Y021475D01*
X035491Y021464D01*
X035488Y021453D01*
X035485Y021440D01*
X035484Y021428D01*
Y021426D01*
Y021423D01*
X035485Y021417D01*
X035486Y021409D01*
X035489Y021401D01*
X035492Y021392D01*
X035497Y021383D01*
X035503Y021373D01*
X035504Y021372D01*
X035506Y021370D01*
X035511Y021365D01*
X035516Y021361D01*
X035523Y021355D01*
X035533Y021349D01*
X035543Y021345D01*
X035555Y021340D01*
X035557Y021339D01*
X035563Y021338D01*
X035573Y021335D01*
X035587Y021333D01*
X035603Y021330D01*
X035621Y021327D01*
X035641Y021326D01*
X035663Y021325D01*
X035950D01*
Y021232D01*
X035401D01*
Y021316D01*
X035483D01*
X035482Y021317D01*
X035475Y021321D01*
X035465Y021327D01*
X035453Y021334D01*
X035440Y021343D01*
X035428Y021354D01*
X035416Y021363D01*
X035408Y021373D01*
X035407Y021375D01*
X035405Y021378D01*
X035402Y021384D01*
X035398Y021392D01*
X035394Y021400D01*
X035392Y021410D01*
X035390Y021422D01*
X035388Y021433D01*
Y021436D01*
Y021441D01*
X035390Y021451D01*
X035392Y021463D01*
X035397Y021477D01*
X035401Y021493D01*
X035409Y021511D01*
X035420Y021529D01*
X035505Y021496D01*
D02*
G37*
G36*
X035950Y021003D02*
X035870D01*
X035872Y021002D01*
X035874Y021000D01*
X035879Y020996D01*
X035884Y020992D01*
X035892Y020985D01*
X035899Y020977D01*
X035908Y020968D01*
X035917Y020957D01*
X035925Y020946D01*
X035934Y020933D01*
X035941Y020918D01*
X035948Y020903D01*
X035955Y020886D01*
X035959Y020868D01*
X035962Y020849D01*
X035963Y020829D01*
Y020827D01*
Y020821D01*
X035962Y020812D01*
X035960Y020799D01*
X035958Y020785D01*
X035955Y020770D01*
X035950Y020754D01*
X035944Y020738D01*
X035943Y020736D01*
X035941Y020731D01*
X035937Y020724D01*
X035932Y020715D01*
X035925Y020705D01*
X035917Y020694D01*
X035908Y020685D01*
X035898Y020676D01*
X035897Y020675D01*
X035893Y020672D01*
X035887Y020669D01*
X035879Y020665D01*
X035868Y020660D01*
X035857Y020655D01*
X035844Y020650D01*
X035829Y020647D01*
X035828D01*
X035823Y020646D01*
X035817D01*
X035808Y020645D01*
X035796Y020644D01*
X035781D01*
X035763Y020642D01*
X035401D01*
Y020736D01*
X035731D01*
X035746Y020737D01*
X035762D01*
X035778Y020738D01*
X035793Y020739D01*
X035805Y020740D01*
X035806D01*
X035810Y020743D01*
X035817Y020745D01*
X035825Y020748D01*
X035835Y020753D01*
X035845Y020760D01*
X035854Y020768D01*
X035862Y020777D01*
X035864Y020778D01*
X035866Y020783D01*
X035869Y020789D01*
X035873Y020797D01*
X035876Y020807D01*
X035880Y020819D01*
X035882Y020833D01*
X035883Y020848D01*
Y020850D01*
Y020855D01*
X035882Y020863D01*
X035881Y020873D01*
X035879Y020884D01*
X035874Y020897D01*
X035869Y020911D01*
X035862Y020925D01*
X035861Y020926D01*
X035858Y020931D01*
X035853Y020938D01*
X035846Y020946D01*
X035838Y020954D01*
X035828Y020963D01*
X035816Y020970D01*
X035804Y020977D01*
X035801Y020978D01*
X035797Y020979D01*
X035789Y020981D01*
X035776Y020985D01*
X035761Y020988D01*
X035742Y020991D01*
X035721Y020992D01*
X035696Y020993D01*
X035401D01*
Y021086D01*
X035950D01*
Y021003D01*
D02*
G37*
G36*
X035700Y020529D02*
Y020121D01*
X035703D01*
X035709Y020122D01*
X035715D01*
X035723Y020124D01*
X035731Y020125D01*
X035752Y020129D01*
X035774Y020136D01*
X035797Y020144D01*
X035820Y020157D01*
X035839Y020172D01*
X035842Y020174D01*
X035846Y020180D01*
X035854Y020190D01*
X035862Y020203D01*
X035872Y020220D01*
X035880Y020240D01*
X035884Y020262D01*
X035887Y020286D01*
Y020287D01*
Y020288D01*
Y020295D01*
X035885Y020305D01*
X035883Y020316D01*
X035880Y020330D01*
X035875Y020345D01*
X035869Y020360D01*
X035860Y020374D01*
X035859Y020375D01*
X035854Y020379D01*
X035849Y020386D01*
X035838Y020394D01*
X035827Y020404D01*
X035812Y020413D01*
X035793Y020422D01*
X035772Y020431D01*
X035785Y020527D01*
X035786D01*
X035789Y020526D01*
X035793Y020525D01*
X035799Y020522D01*
X035806Y020520D01*
X035814Y020517D01*
X035834Y020507D01*
X035854Y020496D01*
X035876Y020482D01*
X035898Y020464D01*
X035917Y020443D01*
Y020442D01*
X035919Y020441D01*
X035921Y020437D01*
X035923Y020431D01*
X035927Y020426D01*
X035932Y020419D01*
X035935Y020411D01*
X035940Y020400D01*
X035948Y020378D01*
X035956Y020351D01*
X035960Y020321D01*
X035963Y020286D01*
Y020285D01*
Y020280D01*
Y020275D01*
X035962Y020266D01*
X035960Y020256D01*
X035959Y020245D01*
X035957Y020232D01*
X035953Y020217D01*
X035944Y020187D01*
X035938Y020171D01*
X035932Y020156D01*
X035923Y020140D01*
X035913Y020125D01*
X035902Y020110D01*
X035889Y020096D01*
X035888Y020095D01*
X035885Y020092D01*
X035881Y020089D01*
X035875Y020085D01*
X035868Y020080D01*
X035859Y020074D01*
X035847Y020067D01*
X035835Y020061D01*
X035821Y020054D01*
X035806Y020047D01*
X035789Y020042D01*
X035770Y020037D01*
X035751Y020032D01*
X035729Y020029D01*
X035706Y020027D01*
X035681Y020026D01*
X035668D01*
X035658Y020027D01*
X035647Y020028D01*
X035633Y020029D01*
X035618Y020031D01*
X035602Y020035D01*
X035567Y020043D01*
X035550Y020049D01*
X035531Y020055D01*
X035514Y020064D01*
X035497Y020073D01*
X035481Y020083D01*
X035466Y020096D01*
X035465Y020097D01*
X035462Y020099D01*
X035459Y020103D01*
X035453Y020109D01*
X035447Y020115D01*
X035442Y020125D01*
X035435Y020134D01*
X035427Y020145D01*
X035420Y020158D01*
X035413Y020172D01*
X035407Y020187D01*
X035400Y020204D01*
X035395Y020222D01*
X035392Y020240D01*
X035390Y020260D01*
X035388Y020280D01*
Y020281D01*
Y020285D01*
Y020291D01*
X035390Y020299D01*
X035391Y020308D01*
X035392Y020320D01*
X035394Y020331D01*
X035398Y020345D01*
X035407Y020373D01*
X035413Y020388D01*
X035421Y020403D01*
X035429Y020418D01*
X035439Y020433D01*
X035451Y020446D01*
X035465Y020460D01*
X035466Y020461D01*
X035468Y020464D01*
X035473Y020467D01*
X035478Y020472D01*
X035486Y020476D01*
X035496Y020482D01*
X035506Y020489D01*
X035519Y020496D01*
X035534Y020502D01*
X035549Y020509D01*
X035566Y020514D01*
X035586Y020520D01*
X035605Y020524D01*
X035627Y020527D01*
X035650Y020529D01*
X035676Y020531D01*
X035689D01*
X035700Y020529D01*
D02*
G37*
G36*
X024866Y014618D02*
X024872Y014615D01*
X024881Y014613D01*
X024890Y014608D01*
X024903Y014604D01*
X024916Y014599D01*
X024929Y014592D01*
X024960Y014577D01*
X024992Y014556D01*
X025022Y014533D01*
X025035Y014520D01*
X025048Y014505D01*
X025049Y014503D01*
X025050Y014501D01*
X025054Y014497D01*
X025058Y014490D01*
X025063Y014482D01*
X025069Y014472D01*
X025075Y014462D01*
X025080Y014449D01*
X025086Y014435D01*
X025092Y014420D01*
X025098Y014403D01*
X025102Y014386D01*
X025110Y014348D01*
X025112Y014327D01*
X025113Y014305D01*
Y014304D01*
Y014299D01*
Y014294D01*
X025112Y014284D01*
Y014274D01*
X025110Y014262D01*
X025108Y014249D01*
X025107Y014235D01*
X025100Y014203D01*
X025092Y014169D01*
X025079Y014137D01*
X025072Y014121D01*
X025063Y014106D01*
X025062Y014104D01*
X025061Y014102D01*
X025057Y014099D01*
X025054Y014093D01*
X025042Y014079D01*
X025026Y014063D01*
X025007Y014043D01*
X024981Y014025D01*
X024952Y014005D01*
X024919Y013989D01*
X024918D01*
X024914Y013988D01*
X024910Y013986D01*
X024903Y013983D01*
X024894Y013980D01*
X024883Y013977D01*
X024872Y013973D01*
X024858Y013970D01*
X024844Y013966D01*
X024828Y013963D01*
X024793Y013956D01*
X024756Y013951D01*
X024716Y013950D01*
X024705D01*
X024696Y013951D01*
X024686D01*
X024673Y013952D01*
X024661Y013953D01*
X024646Y013956D01*
X024613Y013962D01*
X024579Y013968D01*
X024543Y013980D01*
X024510Y013995D01*
X024509D01*
X024506Y013997D01*
X024502Y014000D01*
X024495Y014003D01*
X024488Y014008D01*
X024480Y014013D01*
X024460Y014028D01*
X024438Y014046D01*
X024416Y014068D01*
X024394Y014094D01*
X024376Y014123D01*
Y014124D01*
X024374Y014126D01*
X024371Y014131D01*
X024369Y014138D01*
X024366Y014145D01*
X024361Y014154D01*
X024357Y014166D01*
X024353Y014177D01*
X024348Y014190D01*
X024345Y014204D01*
X024337Y014235D01*
X024332Y014269D01*
X024330Y014306D01*
Y014307D01*
Y014311D01*
Y014318D01*
X024331Y014326D01*
X024332Y014335D01*
X024333Y014347D01*
X024334Y014359D01*
X024337Y014373D01*
X024344Y014403D01*
X024354Y014435D01*
X024361Y014452D01*
X024369Y014468D01*
X024378Y014483D01*
X024389Y014498D01*
X024390Y014499D01*
X024391Y014501D01*
X024394Y014505D01*
X024399Y014510D01*
X024405Y014516D01*
X024413Y014524D01*
X024421Y014532D01*
X024430Y014540D01*
X024442Y014550D01*
X024453Y014558D01*
X024467Y014567D01*
X024482Y014576D01*
X024497Y014584D01*
X024514Y014592D01*
X024551Y014606D01*
X024574Y014507D01*
X024573D01*
X024571Y014506D01*
X024566Y014505D01*
X024560Y014502D01*
X024553Y014499D01*
X024545Y014495D01*
X024528Y014487D01*
X024509Y014477D01*
X024488Y014463D01*
X024469Y014448D01*
X024453Y014430D01*
X024452Y014427D01*
X024447Y014420D01*
X024442Y014410D01*
X024434Y014395D01*
X024427Y014378D01*
X024421Y014356D01*
X024416Y014332D01*
X024415Y014304D01*
Y014303D01*
Y014301D01*
Y014296D01*
X024416Y014290D01*
Y014282D01*
X024417Y014274D01*
X024421Y014253D01*
X024425Y014230D01*
X024434Y014206D01*
X024444Y014182D01*
X024458Y014159D01*
Y014158D01*
X024460Y014156D01*
X024466Y014149D01*
X024475Y014139D01*
X024488Y014126D01*
X024504Y014114D01*
X024522Y014100D01*
X024545Y014087D01*
X024571Y014077D01*
X024572D01*
X024574Y014076D01*
X024578Y014075D01*
X024583Y014073D01*
X024589Y014071D01*
X024597Y014070D01*
X024616Y014065D01*
X024638Y014061D01*
X024662Y014057D01*
X024688Y014055D01*
X024716Y014054D01*
X024732D01*
X024740Y014055D01*
X024751D01*
X024761Y014056D01*
X024773Y014057D01*
X024799Y014061D01*
X024828Y014065D01*
X024857Y014072D01*
X024884Y014081D01*
X024886D01*
X024888Y014083D01*
X024891Y014085D01*
X024896Y014087D01*
X024910Y014093D01*
X024925Y014102D01*
X024943Y014115D01*
X024960Y014130D01*
X024978Y014147D01*
X024993Y014168D01*
Y014169D01*
X024994Y014170D01*
X024996Y014174D01*
X024999Y014178D01*
X025003Y014191D01*
X025010Y014207D01*
X025016Y014226D01*
X025022Y014247D01*
X025026Y014272D01*
X025027Y014297D01*
Y014298D01*
Y014301D01*
Y014305D01*
X025026Y014311D01*
Y014318D01*
X025025Y014327D01*
X025022Y014347D01*
X025016Y014369D01*
X025007Y014393D01*
X024995Y014416D01*
X024979Y014439D01*
X024978Y014440D01*
X024977Y014441D01*
X024970Y014448D01*
X024958Y014458D01*
X024943Y014471D01*
X024922Y014484D01*
X024898Y014498D01*
X024868Y014509D01*
X024835Y014518D01*
X024860Y014619D01*
X024861D01*
X024866Y014618D01*
D02*
G37*
G36*
X035950Y019823D02*
X035882D01*
X035883Y019821D01*
X035885Y019820D01*
X035889Y019817D01*
X035895Y019812D01*
X035900Y019808D01*
X035907Y019801D01*
X035914Y019793D01*
X035922Y019783D01*
X035929Y019773D01*
X035937Y019761D01*
X035944Y019749D01*
X035950Y019736D01*
X035956Y019721D01*
X035959Y019705D01*
X035962Y019688D01*
X035963Y019669D01*
Y019668D01*
Y019666D01*
Y019662D01*
X035962Y019658D01*
X035960Y019645D01*
X035958Y019630D01*
X035953Y019610D01*
X035948Y019591D01*
X035938Y019569D01*
X035927Y019548D01*
Y019547D01*
X035926Y019546D01*
X035920Y019539D01*
X035912Y019530D01*
X035900Y019517D01*
X035887Y019504D01*
X035869Y019489D01*
X035850Y019477D01*
X035827Y019464D01*
X035825D01*
X035823Y019463D01*
X035820Y019462D01*
X035815Y019459D01*
X035809Y019457D01*
X035801Y019455D01*
X035783Y019449D01*
X035761Y019443D01*
X035736Y019439D01*
X035708Y019435D01*
X035677Y019434D01*
X035663D01*
X035656Y019435D01*
X035647D01*
X035627Y019437D01*
X035604Y019441D01*
X035580Y019446D01*
X035553Y019451D01*
X035528Y019461D01*
X035527D01*
X035525Y019462D01*
X035521Y019464D01*
X035516Y019466D01*
X035505Y019472D01*
X035490Y019481D01*
X035473Y019493D01*
X035455Y019507D01*
X035439Y019523D01*
X035424Y019542D01*
Y019544D01*
X035423Y019545D01*
X035418Y019552D01*
X035413Y019563D01*
X035406Y019578D01*
X035400Y019597D01*
X035394Y019617D01*
X035390Y019640D01*
X035388Y019665D01*
Y019666D01*
Y019667D01*
Y019673D01*
X035390Y019682D01*
X035391Y019695D01*
X035394Y019707D01*
X035398Y019722D01*
X035403Y019737D01*
X035410Y019752D01*
X035412Y019755D01*
X035414Y019759D01*
X035418Y019766D01*
X035425Y019775D01*
X035432Y019785D01*
X035442Y019796D01*
X035453Y019806D01*
X035465Y019816D01*
X035192D01*
Y019909D01*
X035950D01*
Y019823D01*
D02*
G37*
G36*
X035589Y022220D02*
X035598D01*
X035619Y022219D01*
X035642Y022216D01*
X035669Y022212D01*
X035695Y022207D01*
X035721Y022200D01*
X035722D01*
X035724Y022199D01*
X035727Y022198D01*
X035732Y022197D01*
X035744Y022192D01*
X035760Y022186D01*
X035777Y022179D01*
X035796Y022170D01*
X035814Y022160D01*
X035831Y022148D01*
X035834Y022147D01*
X035838Y022142D01*
X035846Y022137D01*
X035857Y022127D01*
X035867Y022118D01*
X035879Y022106D01*
X035890Y022093D01*
X035900Y022079D01*
X035902Y022078D01*
X035904Y022072D01*
X035908Y022064D01*
X035914Y022054D01*
X035920Y022041D01*
X035926Y022026D01*
X035932Y022009D01*
X035937Y021989D01*
Y021987D01*
X035940Y021980D01*
X035941Y021969D01*
X035943Y021954D01*
X035945Y021937D01*
X035948Y021916D01*
X035949Y021893D01*
X035950Y021868D01*
Y021596D01*
X035192D01*
Y021855D01*
Y021856D01*
Y021859D01*
Y021863D01*
Y021870D01*
Y021877D01*
Y021886D01*
X035194Y021906D01*
X035195Y021927D01*
X035197Y021950D01*
X035201Y021972D01*
X035204Y021990D01*
Y021991D01*
X035205Y021994D01*
Y021996D01*
X035207Y022001D01*
X035211Y022013D01*
X035217Y022028D01*
X035224Y022046D01*
X035233Y022064D01*
X035244Y022082D01*
X035258Y022101D01*
Y022102D01*
X035261Y022103D01*
X035267Y022111D01*
X035279Y022122D01*
X035294Y022134D01*
X035312Y022149D01*
X035334Y022164D01*
X035360Y022178D01*
X035388Y022191D01*
X035390D01*
X035392Y022192D01*
X035397Y022193D01*
X035402Y022195D01*
X035409Y022198D01*
X035418Y022200D01*
X035429Y022204D01*
X035440Y022206D01*
X035453Y022208D01*
X035467Y022212D01*
X035497Y022216D01*
X035530Y022220D01*
X035567Y022221D01*
X035582D01*
X035589Y022220D01*
D02*
G37*
G36*
X025000Y025976D02*
X024987D01*
X024979Y025977D01*
X024970Y025978D01*
X024960Y025979D01*
X024948Y025983D01*
X024937Y025986D01*
X024935D01*
X024934Y025988D01*
X024927Y025990D01*
X024918Y025994D01*
X024904Y026001D01*
X024889Y026009D01*
X024872Y026021D01*
X024855Y026032D01*
X024836Y026047D01*
X024835D01*
X024834Y026050D01*
X024827Y026056D01*
X024817Y026065D01*
X024803Y026079D01*
X024787Y026096D01*
X024767Y026117D01*
X024745Y026142D01*
X024721Y026170D01*
X024720Y026171D01*
X024716Y026175D01*
X024712Y026181D01*
X024704Y026189D01*
X024696Y026200D01*
X024685Y026211D01*
X024663Y026237D01*
X024637Y026264D01*
X024610Y026292D01*
X024598Y026306D01*
X024585Y026317D01*
X024572Y026328D01*
X024561Y026337D01*
X024560D01*
X024558Y026339D01*
X024555Y026341D01*
X024550Y026344D01*
X024539Y026351D01*
X024524Y026359D01*
X024507Y026367D01*
X024488Y026374D01*
X024467Y026378D01*
X024448Y026381D01*
X024445D01*
X024438Y026380D01*
X024428Y026378D01*
X024415Y026376D01*
X024400Y026370D01*
X024385Y026363D01*
X024369Y026354D01*
X024354Y026340D01*
X024353Y026338D01*
X024349Y026333D01*
X024343Y026324D01*
X024335Y026313D01*
X024328Y026298D01*
X024322Y026280D01*
X024317Y026260D01*
X024316Y026237D01*
Y026235D01*
Y026233D01*
Y026230D01*
X024317Y026225D01*
X024319Y026214D01*
X024321Y026199D01*
X024327Y026181D01*
X024334Y026163D01*
X024344Y026145D01*
X024358Y026129D01*
X024360Y026128D01*
X024365Y026124D01*
X024374Y026117D01*
X024387Y026110D01*
X024403Y026102D01*
X024421Y026096D01*
X024443Y026091D01*
X024468Y026089D01*
X024458Y025993D01*
X024453D01*
X024448Y025994D01*
X024441Y025996D01*
X024432Y025998D01*
X024421Y025999D01*
X024398Y026006D01*
X024372Y026015D01*
X024345Y026028D01*
X024319Y026045D01*
X024307Y026054D01*
X024296Y026066D01*
X024294Y026067D01*
X024293Y026069D01*
X024290Y026073D01*
X024286Y026077D01*
X024283Y026084D01*
X024277Y026092D01*
X024272Y026102D01*
X024267Y026112D01*
X024262Y026124D01*
X024256Y026136D01*
X024252Y026151D01*
X024248Y026166D01*
X024241Y026201D01*
X024240Y026219D01*
X024239Y026239D01*
Y026240D01*
Y026243D01*
Y026249D01*
X024240Y026257D01*
X024241Y026267D01*
X024242Y026277D01*
X024244Y026288D01*
X024247Y026301D01*
X024254Y026329D01*
X024264Y026358D01*
X024271Y026373D01*
X024279Y026386D01*
X024290Y026399D01*
X024300Y026412D01*
X024301Y026413D01*
X024302Y026414D01*
X024306Y026418D01*
X024311Y026422D01*
X024317Y026427D01*
X024324Y026433D01*
X024342Y026444D01*
X024364Y026456D01*
X024389Y026466D01*
X024418Y026474D01*
X024434Y026475D01*
X024450Y026476D01*
X024458D01*
X024467Y026475D01*
X024479Y026474D01*
X024493Y026472D01*
X024508Y026468D01*
X024524Y026464D01*
X024540Y026457D01*
X024542Y026456D01*
X024548Y026453D01*
X024556Y026449D01*
X024568Y026442D01*
X024581Y026434D01*
X024598Y026423D01*
X024614Y026410D01*
X024632Y026395D01*
X024634Y026392D01*
X024641Y026386D01*
X024652Y026376D01*
X024659Y026369D01*
X024667Y026361D01*
X024676Y026352D01*
X024686Y026340D01*
X024697Y026329D01*
X024709Y026316D01*
X024722Y026302D01*
X024736Y026286D01*
X024750Y026270D01*
X024766Y026252D01*
X024767Y026250D01*
X024769Y026248D01*
X024773Y026243D01*
X024777Y026238D01*
X024789Y026224D01*
X024804Y026207D01*
X024820Y026189D01*
X024836Y026171D01*
X024850Y026156D01*
X024856Y026150D01*
X024862Y026144D01*
X024863Y026143D01*
X024866Y026141D01*
X024871Y026136D01*
X024878Y026130D01*
X024893Y026118D01*
X024911Y026105D01*
Y026478D01*
X025000D01*
Y025976D01*
D02*
G37*
G36*
Y025750D02*
X024242D01*
Y025850D01*
X025000D01*
Y025750D01*
D02*
G37*
G36*
X025050Y022379D02*
X025037D01*
X025029Y022380D01*
X025020Y022381D01*
X025010Y022382D01*
X024998Y022386D01*
X024987Y022389D01*
X024985D01*
X024984Y022390D01*
X024977Y022393D01*
X024968Y022397D01*
X024954Y022404D01*
X024939Y022412D01*
X024922Y022424D01*
X024905Y022435D01*
X024886Y022450D01*
X024885D01*
X024884Y022453D01*
X024877Y022459D01*
X024867Y022468D01*
X024853Y022482D01*
X024837Y022499D01*
X024817Y022520D01*
X024795Y022545D01*
X024771Y022573D01*
X024770Y022574D01*
X024766Y022578D01*
X024762Y022584D01*
X024754Y022592D01*
X024746Y022603D01*
X024735Y022614D01*
X024713Y022640D01*
X024687Y022667D01*
X024660Y022695D01*
X024648Y022709D01*
X024635Y022720D01*
X024622Y022731D01*
X024611Y022740D01*
X024610D01*
X024608Y022742D01*
X024605Y022744D01*
X024600Y022747D01*
X024589Y022754D01*
X024574Y022762D01*
X024557Y022770D01*
X024538Y022777D01*
X024517Y022781D01*
X024498Y022784D01*
X024495D01*
X024488Y022783D01*
X024478Y022781D01*
X024465Y022779D01*
X024450Y022773D01*
X024435Y022766D01*
X024419Y022757D01*
X024404Y022743D01*
X024403Y022741D01*
X024399Y022736D01*
X024393Y022727D01*
X024385Y022716D01*
X024378Y022701D01*
X024372Y022683D01*
X024367Y022663D01*
X024366Y022640D01*
Y022638D01*
Y022636D01*
Y022633D01*
X024367Y022628D01*
X024369Y022616D01*
X024371Y022601D01*
X024377Y022584D01*
X024384Y022566D01*
X024394Y022548D01*
X024408Y022532D01*
X024410Y022531D01*
X024415Y022527D01*
X024424Y022520D01*
X024437Y022513D01*
X024453Y022505D01*
X024471Y022499D01*
X024493Y022494D01*
X024518Y022492D01*
X024508Y022396D01*
X024503D01*
X024498Y022397D01*
X024491Y022399D01*
X024482Y022401D01*
X024471Y022402D01*
X024448Y022409D01*
X024422Y022418D01*
X024395Y022431D01*
X024369Y022448D01*
X024357Y022457D01*
X024346Y022469D01*
X024344Y022470D01*
X024343Y022472D01*
X024340Y022476D01*
X024336Y022480D01*
X024333Y022487D01*
X024327Y022495D01*
X024322Y022505D01*
X024317Y022515D01*
X024312Y022527D01*
X024306Y022539D01*
X024302Y022554D01*
X024298Y022569D01*
X024291Y022604D01*
X024290Y022622D01*
X024289Y022642D01*
Y022643D01*
Y022646D01*
Y022652D01*
X024290Y022660D01*
X024291Y022670D01*
X024292Y022680D01*
X024294Y022691D01*
X024297Y022704D01*
X024304Y022732D01*
X024314Y022761D01*
X024321Y022776D01*
X024329Y022789D01*
X024340Y022802D01*
X024350Y022815D01*
X024351Y022816D01*
X024352Y022817D01*
X024356Y022821D01*
X024361Y022825D01*
X024367Y022830D01*
X024374Y022836D01*
X024392Y022847D01*
X024414Y022859D01*
X024439Y022869D01*
X024468Y022877D01*
X024484Y022878D01*
X024500Y022879D01*
X024508D01*
X024517Y022878D01*
X024529Y022877D01*
X024543Y022875D01*
X024558Y022871D01*
X024574Y022867D01*
X024590Y022860D01*
X024592Y022859D01*
X024598Y022856D01*
X024606Y022852D01*
X024618Y022845D01*
X024631Y022837D01*
X024648Y022826D01*
X024664Y022812D01*
X024682Y022798D01*
X024685Y022795D01*
X024691Y022789D01*
X024702Y022779D01*
X024709Y022772D01*
X024717Y022764D01*
X024726Y022755D01*
X024736Y022743D01*
X024747Y022732D01*
X024759Y022719D01*
X024772Y022705D01*
X024786Y022689D01*
X024800Y022673D01*
X024816Y022655D01*
X024817Y022653D01*
X024819Y022651D01*
X024823Y022646D01*
X024827Y022641D01*
X024839Y022627D01*
X024854Y022610D01*
X024870Y022592D01*
X024886Y022574D01*
X024900Y022559D01*
X024906Y022553D01*
X024912Y022547D01*
X024913Y022546D01*
X024916Y022544D01*
X024921Y022539D01*
X024928Y022533D01*
X024943Y022521D01*
X024961Y022508D01*
Y022881D01*
X025050D01*
Y022379D01*
D02*
G37*
G36*
X025000Y027949D02*
X024407D01*
X024409Y027948D01*
X024413Y027943D01*
X024419Y027935D01*
X024427Y027925D01*
X024437Y027912D01*
X024448Y027897D01*
X024460Y027880D01*
X024472Y027860D01*
Y027859D01*
X024473Y027858D01*
X024478Y027851D01*
X024483Y027840D01*
X024490Y027828D01*
X024498Y027813D01*
X024505Y027797D01*
X024513Y027779D01*
X024520Y027763D01*
X024429D01*
Y027764D01*
X024428Y027767D01*
X024426Y027771D01*
X024422Y027776D01*
X024419Y027783D01*
X024415Y027791D01*
X024405Y027809D01*
X024392Y027830D01*
X024377Y027853D01*
X024360Y027876D01*
X024342Y027898D01*
X024340Y027899D01*
X024339Y027900D01*
X024332Y027907D01*
X024322Y027918D01*
X024309Y027930D01*
X024293Y027944D01*
X024276Y027958D01*
X024257Y027971D01*
X024239Y027981D01*
Y028042D01*
X025000D01*
Y027949D01*
D02*
G37*
G36*
X024773Y027330D02*
X024679D01*
Y027614D01*
X024773D01*
Y027330D01*
D02*
G37*
G36*
X024766Y027254D02*
X024772Y027251D01*
X024781Y027249D01*
X024790Y027244D01*
X024803Y027240D01*
X024816Y027235D01*
X024829Y027228D01*
X024860Y027213D01*
X024892Y027192D01*
X024922Y027169D01*
X024935Y027156D01*
X024948Y027141D01*
X024949Y027139D01*
X024950Y027137D01*
X024954Y027132D01*
X024958Y027126D01*
X024963Y027117D01*
X024969Y027108D01*
X024975Y027098D01*
X024980Y027085D01*
X024986Y027071D01*
X024992Y027056D01*
X024998Y027039D01*
X025002Y027022D01*
X025010Y026984D01*
X025012Y026963D01*
X025013Y026941D01*
Y026940D01*
Y026935D01*
Y026930D01*
X025012Y026920D01*
Y026910D01*
X025010Y026898D01*
X025008Y026885D01*
X025007Y026871D01*
X025000Y026838D01*
X024992Y026805D01*
X024979Y026773D01*
X024972Y026757D01*
X024963Y026742D01*
X024962Y026740D01*
X024961Y026738D01*
X024957Y026735D01*
X024954Y026729D01*
X024942Y026715D01*
X024926Y026699D01*
X024907Y026679D01*
X024881Y026661D01*
X024852Y026641D01*
X024819Y026625D01*
X024818D01*
X024814Y026624D01*
X024810Y026622D01*
X024803Y026619D01*
X024794Y026616D01*
X024783Y026612D01*
X024772Y026609D01*
X024758Y026606D01*
X024744Y026602D01*
X024728Y026599D01*
X024693Y026592D01*
X024656Y026587D01*
X024616Y026586D01*
X024605D01*
X024596Y026587D01*
X024586D01*
X024573Y026588D01*
X024561Y026589D01*
X024546Y026592D01*
X024513Y026597D01*
X024479Y026604D01*
X024443Y026616D01*
X024410Y026631D01*
X024409D01*
X024406Y026633D01*
X024402Y026635D01*
X024395Y026639D01*
X024388Y026644D01*
X024380Y026649D01*
X024360Y026664D01*
X024338Y026682D01*
X024316Y026704D01*
X024294Y026730D01*
X024276Y026759D01*
Y026760D01*
X024274Y026762D01*
X024271Y026767D01*
X024269Y026774D01*
X024266Y026781D01*
X024261Y026790D01*
X024257Y026802D01*
X024253Y026813D01*
X024248Y026826D01*
X024245Y026840D01*
X024237Y026871D01*
X024232Y026905D01*
X024230Y026942D01*
Y026943D01*
Y026947D01*
Y026954D01*
X024231Y026962D01*
X024232Y026971D01*
X024233Y026983D01*
X024234Y026995D01*
X024237Y027009D01*
X024244Y027039D01*
X024254Y027071D01*
X024261Y027087D01*
X024269Y027104D01*
X024278Y027119D01*
X024289Y027134D01*
X024290Y027135D01*
X024291Y027137D01*
X024294Y027141D01*
X024299Y027146D01*
X024305Y027152D01*
X024313Y027160D01*
X024321Y027168D01*
X024330Y027176D01*
X024342Y027185D01*
X024353Y027194D01*
X024367Y027203D01*
X024382Y027212D01*
X024397Y027220D01*
X024414Y027228D01*
X024451Y027242D01*
X024474Y027143D01*
X024473D01*
X024471Y027142D01*
X024466Y027141D01*
X024460Y027138D01*
X024453Y027135D01*
X024445Y027131D01*
X024428Y027123D01*
X024409Y027113D01*
X024388Y027099D01*
X024369Y027084D01*
X024353Y027066D01*
X024352Y027063D01*
X024347Y027056D01*
X024342Y027046D01*
X024334Y027031D01*
X024327Y027014D01*
X024321Y026992D01*
X024316Y026968D01*
X024315Y026940D01*
Y026939D01*
Y026936D01*
Y026932D01*
X024316Y026926D01*
Y026918D01*
X024317Y026910D01*
X024321Y026889D01*
X024325Y026866D01*
X024334Y026842D01*
X024344Y026818D01*
X024358Y026795D01*
Y026793D01*
X024360Y026792D01*
X024366Y026785D01*
X024375Y026775D01*
X024388Y026762D01*
X024404Y026750D01*
X024422Y026736D01*
X024445Y026723D01*
X024471Y026713D01*
X024472D01*
X024474Y026712D01*
X024478Y026710D01*
X024483Y026709D01*
X024489Y026707D01*
X024497Y026706D01*
X024516Y026701D01*
X024538Y026697D01*
X024562Y026693D01*
X024588Y026691D01*
X024616Y026690D01*
X024632D01*
X024640Y026691D01*
X024651D01*
X024661Y026692D01*
X024673Y026693D01*
X024699Y026697D01*
X024728Y026701D01*
X024757Y026708D01*
X024784Y026717D01*
X024786D01*
X024788Y026719D01*
X024791Y026721D01*
X024796Y026723D01*
X024810Y026729D01*
X024825Y026738D01*
X024843Y026751D01*
X024860Y026766D01*
X024878Y026783D01*
X024893Y026804D01*
Y026805D01*
X024894Y026806D01*
X024896Y026810D01*
X024899Y026814D01*
X024903Y026827D01*
X024910Y026843D01*
X024916Y026861D01*
X024922Y026883D01*
X024926Y026908D01*
X024927Y026933D01*
Y026934D01*
Y026936D01*
Y026941D01*
X024926Y026947D01*
Y026954D01*
X024925Y026963D01*
X024922Y026983D01*
X024916Y027004D01*
X024907Y027029D01*
X024895Y027052D01*
X024879Y027075D01*
X024878Y027076D01*
X024877Y027077D01*
X024870Y027084D01*
X024858Y027094D01*
X024843Y027107D01*
X024822Y027120D01*
X024798Y027134D01*
X024768Y027145D01*
X024735Y027154D01*
X024760Y027255D01*
X024761D01*
X024766Y027254D01*
D02*
G37*
G36*
X024823Y022030D02*
X024729D01*
Y022314D01*
X024823D01*
Y022030D01*
D02*
G37*
G36*
X025050Y020450D02*
X024292D01*
Y020550D01*
X025050D01*
Y020450D01*
D02*
G37*
G36*
X024996Y018119D02*
X024997Y018117D01*
X025001Y018113D01*
X025004Y018108D01*
X025010Y018101D01*
X025015Y018093D01*
X025029Y018073D01*
X025042Y018050D01*
X025057Y018025D01*
X025071Y017996D01*
X025084Y017967D01*
Y017966D01*
X025085Y017964D01*
X025086Y017959D01*
X025088Y017953D01*
X025091Y017946D01*
X025093Y017938D01*
X025095Y017928D01*
X025098Y017917D01*
X025103Y017893D01*
X025108Y017867D01*
X025112Y017837D01*
X025113Y017807D01*
Y017806D01*
Y017802D01*
Y017796D01*
X025112Y017788D01*
Y017778D01*
X025110Y017766D01*
X025109Y017754D01*
X025107Y017740D01*
X025101Y017708D01*
X025093Y017674D01*
X025082Y017638D01*
X025065Y017604D01*
X025064Y017603D01*
X025063Y017600D01*
X025061Y017595D01*
X025056Y017589D01*
X025052Y017581D01*
X025046Y017573D01*
X025031Y017553D01*
X025011Y017530D01*
X024987Y017508D01*
X024959Y017486D01*
X024928Y017467D01*
X024927D01*
X024924Y017464D01*
X024919Y017462D01*
X024912Y017460D01*
X024904Y017456D01*
X024894Y017452D01*
X024882Y017448D01*
X024868Y017444D01*
X024854Y017439D01*
X024838Y017436D01*
X024804Y017427D01*
X024766Y017423D01*
X024725Y017421D01*
X024715D01*
X024707Y017422D01*
X024696D01*
X024685Y017423D01*
X024672Y017424D01*
X024658Y017426D01*
X024626Y017432D01*
X024592Y017440D01*
X024555Y017452D01*
X024519Y017467D01*
X024518D01*
X024514Y017469D01*
X024510Y017471D01*
X024503Y017475D01*
X024495Y017480D01*
X024487Y017486D01*
X024465Y017500D01*
X024442Y017520D01*
X024419Y017542D01*
X024397Y017569D01*
X024386Y017583D01*
X024377Y017599D01*
Y017600D01*
X024375Y017603D01*
X024372Y017608D01*
X024370Y017614D01*
X024366Y017622D01*
X024362Y017633D01*
X024357Y017644D01*
X024353Y017657D01*
X024349Y017671D01*
X024345Y017686D01*
X024337Y017720D01*
X024332Y017757D01*
X024330Y017799D01*
Y017800D01*
Y017802D01*
Y017807D01*
Y017813D01*
X024331Y017819D01*
Y017829D01*
X024333Y017848D01*
X024337Y017870D01*
X024341Y017896D01*
X024348Y017921D01*
X024357Y017946D01*
Y017947D01*
X024359Y017950D01*
X024360Y017953D01*
X024362Y017958D01*
X024368Y017969D01*
X024377Y017984D01*
X024387Y018002D01*
X024400Y018019D01*
X024414Y018036D01*
X024431Y018051D01*
X024434Y018052D01*
X024439Y018057D01*
X024450Y018064D01*
X024465Y018073D01*
X024482Y018082D01*
X024503Y018092D01*
X024527Y018101D01*
X024555Y018109D01*
X024580Y018018D01*
X024579D01*
X024578Y018017D01*
X024571Y018015D01*
X024560Y018011D01*
X024547Y018006D01*
X024533Y018000D01*
X024518Y017994D01*
X024503Y017986D01*
X024489Y017976D01*
X024488Y017975D01*
X024483Y017972D01*
X024477Y017966D01*
X024469Y017958D01*
X024461Y017947D01*
X024452Y017935D01*
X024444Y017921D01*
X024436Y017904D01*
X024435Y017901D01*
X024432Y017896D01*
X024429Y017885D01*
X024425Y017873D01*
X024422Y017858D01*
X024419Y017840D01*
X024416Y017821D01*
X024415Y017800D01*
Y017799D01*
Y017796D01*
Y017793D01*
Y017788D01*
X024416Y017776D01*
X024417Y017760D01*
X024421Y017741D01*
X024424Y017720D01*
X024430Y017701D01*
X024437Y017681D01*
X024438Y017679D01*
X024440Y017673D01*
X024445Y017664D01*
X024452Y017652D01*
X024460Y017640D01*
X024469Y017626D01*
X024480Y017613D01*
X024492Y017600D01*
X024494Y017599D01*
X024498Y017596D01*
X024505Y017590D01*
X024514Y017583D01*
X024526Y017575D01*
X024538Y017567D01*
X024552Y017560D01*
X024567Y017553D01*
X024568D01*
X024571Y017552D01*
X024574Y017551D01*
X024580Y017549D01*
X024586Y017546D01*
X024594Y017544D01*
X024612Y017539D01*
X024635Y017534D01*
X024661Y017529D01*
X024690Y017525D01*
X024720Y017524D01*
X024729D01*
X024737Y017525D01*
X024745D01*
X024755Y017527D01*
X024767Y017528D01*
X024778Y017529D01*
X024806Y017532D01*
X024835Y017539D01*
X024862Y017547D01*
X024890Y017559D01*
X024891D01*
X024894Y017560D01*
X024897Y017562D01*
X024902Y017566D01*
X024913Y017574D01*
X024928Y017584D01*
X024944Y017598D01*
X024962Y017615D01*
X024978Y017636D01*
X024992Y017659D01*
Y017660D01*
X024993Y017663D01*
X024995Y017666D01*
X024996Y017671D01*
X024999Y017677D01*
X025002Y017685D01*
X025008Y017702D01*
X025014Y017724D01*
X025019Y017747D01*
X025023Y017773D01*
X025024Y017801D01*
Y017802D01*
Y017804D01*
Y017808D01*
Y017813D01*
X025023Y017825D01*
X025020Y017841D01*
X025018Y017860D01*
X025014Y017882D01*
X025008Y017905D01*
X025000Y017928D01*
Y017929D01*
X024999Y017930D01*
X024997Y017934D01*
X024995Y017938D01*
X024990Y017950D01*
X024984Y017964D01*
X024975Y017979D01*
X024966Y017994D01*
X024956Y018009D01*
X024945Y018022D01*
X024803D01*
Y017800D01*
X024714D01*
Y018120D01*
X024995D01*
X024996Y018119D01*
D02*
G37*
G36*
X024655Y017346D02*
X024654Y017344D01*
X024651Y017340D01*
X024648Y017333D01*
X024645Y017325D01*
X024641Y017314D01*
X024638Y017303D01*
X024635Y017290D01*
X024634Y017278D01*
Y017276D01*
Y017273D01*
X024635Y017267D01*
X024636Y017259D01*
X024639Y017251D01*
X024642Y017242D01*
X024647Y017233D01*
X024653Y017223D01*
X024654Y017222D01*
X024656Y017220D01*
X024661Y017215D01*
X024666Y017211D01*
X024673Y017205D01*
X024683Y017199D01*
X024693Y017195D01*
X024705Y017190D01*
X024707Y017189D01*
X024713Y017188D01*
X024723Y017185D01*
X024737Y017183D01*
X024753Y017180D01*
X024771Y017177D01*
X024791Y017176D01*
X024813Y017175D01*
X025100D01*
Y017082D01*
X024551D01*
Y017166D01*
X024633D01*
X024632Y017167D01*
X024625Y017171D01*
X024615Y017177D01*
X024603Y017184D01*
X024590Y017193D01*
X024578Y017204D01*
X024566Y017213D01*
X024558Y017223D01*
X024557Y017225D01*
X024555Y017228D01*
X024552Y017234D01*
X024548Y017242D01*
X024544Y017250D01*
X024542Y017260D01*
X024540Y017272D01*
X024538Y017283D01*
Y017286D01*
Y017291D01*
X024540Y017301D01*
X024542Y017313D01*
X024547Y017327D01*
X024551Y017343D01*
X024559Y017361D01*
X024570Y017379D01*
X024655Y017346D01*
D02*
G37*
G36*
X024816Y021954D02*
X024822Y021951D01*
X024831Y021949D01*
X024840Y021944D01*
X024853Y021940D01*
X024866Y021935D01*
X024879Y021928D01*
X024910Y021913D01*
X024942Y021892D01*
X024972Y021869D01*
X024985Y021856D01*
X024998Y021841D01*
X024999Y021839D01*
X025000Y021837D01*
X025004Y021832D01*
X025008Y021826D01*
X025013Y021817D01*
X025019Y021808D01*
X025025Y021798D01*
X025030Y021785D01*
X025036Y021771D01*
X025042Y021756D01*
X025048Y021739D01*
X025052Y021722D01*
X025060Y021684D01*
X025062Y021663D01*
X025063Y021641D01*
Y021640D01*
Y021635D01*
Y021630D01*
X025062Y021620D01*
Y021610D01*
X025060Y021598D01*
X025058Y021585D01*
X025057Y021571D01*
X025050Y021538D01*
X025042Y021505D01*
X025029Y021473D01*
X025022Y021457D01*
X025013Y021442D01*
X025012Y021440D01*
X025011Y021438D01*
X025007Y021435D01*
X025004Y021429D01*
X024992Y021415D01*
X024976Y021399D01*
X024957Y021379D01*
X024931Y021361D01*
X024902Y021341D01*
X024869Y021325D01*
X024868D01*
X024864Y021324D01*
X024860Y021322D01*
X024853Y021319D01*
X024844Y021316D01*
X024833Y021312D01*
X024822Y021309D01*
X024808Y021306D01*
X024794Y021302D01*
X024778Y021299D01*
X024743Y021292D01*
X024706Y021287D01*
X024666Y021286D01*
X024655D01*
X024646Y021287D01*
X024636D01*
X024623Y021288D01*
X024611Y021289D01*
X024596Y021292D01*
X024563Y021297D01*
X024529Y021304D01*
X024493Y021316D01*
X024460Y021331D01*
X024459D01*
X024456Y021333D01*
X024452Y021335D01*
X024445Y021339D01*
X024438Y021344D01*
X024430Y021349D01*
X024410Y021364D01*
X024388Y021382D01*
X024366Y021404D01*
X024344Y021430D01*
X024326Y021459D01*
Y021460D01*
X024324Y021462D01*
X024321Y021467D01*
X024319Y021474D01*
X024316Y021481D01*
X024311Y021490D01*
X024307Y021502D01*
X024303Y021513D01*
X024298Y021526D01*
X024295Y021540D01*
X024287Y021571D01*
X024282Y021605D01*
X024280Y021642D01*
Y021643D01*
Y021647D01*
Y021654D01*
X024281Y021662D01*
X024282Y021671D01*
X024283Y021683D01*
X024284Y021695D01*
X024287Y021709D01*
X024294Y021739D01*
X024304Y021771D01*
X024311Y021787D01*
X024319Y021804D01*
X024328Y021819D01*
X024339Y021834D01*
X024340Y021835D01*
X024341Y021837D01*
X024344Y021841D01*
X024349Y021846D01*
X024355Y021852D01*
X024363Y021860D01*
X024371Y021868D01*
X024380Y021876D01*
X024392Y021885D01*
X024403Y021894D01*
X024417Y021903D01*
X024432Y021912D01*
X024447Y021920D01*
X024464Y021928D01*
X024501Y021942D01*
X024524Y021843D01*
X024523D01*
X024521Y021842D01*
X024516Y021841D01*
X024510Y021838D01*
X024503Y021835D01*
X024495Y021831D01*
X024478Y021823D01*
X024459Y021813D01*
X024438Y021799D01*
X024419Y021784D01*
X024403Y021766D01*
X024402Y021763D01*
X024397Y021756D01*
X024392Y021746D01*
X024384Y021731D01*
X024377Y021714D01*
X024371Y021692D01*
X024366Y021668D01*
X024365Y021640D01*
Y021639D01*
Y021636D01*
Y021632D01*
X024366Y021626D01*
Y021618D01*
X024367Y021610D01*
X024371Y021589D01*
X024376Y021566D01*
X024384Y021542D01*
X024394Y021518D01*
X024408Y021495D01*
Y021493D01*
X024410Y021492D01*
X024416Y021485D01*
X024425Y021475D01*
X024438Y021462D01*
X024454Y021450D01*
X024472Y021436D01*
X024495Y021423D01*
X024521Y021413D01*
X024522D01*
X024524Y021412D01*
X024528Y021410D01*
X024533Y021409D01*
X024539Y021407D01*
X024547Y021406D01*
X024566Y021401D01*
X024588Y021397D01*
X024612Y021393D01*
X024638Y021391D01*
X024666Y021390D01*
X024682D01*
X024690Y021391D01*
X024701D01*
X024711Y021392D01*
X024723Y021393D01*
X024749Y021397D01*
X024778Y021401D01*
X024807Y021408D01*
X024834Y021417D01*
X024836D01*
X024838Y021419D01*
X024841Y021421D01*
X024846Y021423D01*
X024860Y021429D01*
X024875Y021438D01*
X024893Y021451D01*
X024910Y021466D01*
X024928Y021483D01*
X024943Y021504D01*
Y021505D01*
X024944Y021506D01*
X024946Y021510D01*
X024949Y021514D01*
X024953Y021527D01*
X024960Y021543D01*
X024966Y021561D01*
X024972Y021583D01*
X024976Y021608D01*
X024977Y021633D01*
Y021634D01*
Y021636D01*
Y021641D01*
X024976Y021647D01*
Y021654D01*
X024975Y021663D01*
X024972Y021683D01*
X024966Y021704D01*
X024957Y021729D01*
X024945Y021752D01*
X024929Y021775D01*
X024928Y021776D01*
X024927Y021777D01*
X024920Y021784D01*
X024908Y021794D01*
X024893Y021807D01*
X024872Y021820D01*
X024848Y021834D01*
X024818Y021845D01*
X024785Y021854D01*
X024810Y021955D01*
X024811D01*
X024816Y021954D01*
D02*
G37*
G36*
X025050Y020676D02*
X025037D01*
X025029Y020677D01*
X025020Y020678D01*
X025010Y020679D01*
X024998Y020683D01*
X024987Y020686D01*
X024985D01*
X024984Y020688D01*
X024977Y020690D01*
X024968Y020694D01*
X024954Y020701D01*
X024939Y020709D01*
X024922Y020721D01*
X024905Y020732D01*
X024886Y020747D01*
X024885D01*
X024884Y020750D01*
X024877Y020756D01*
X024867Y020765D01*
X024853Y020779D01*
X024837Y020796D01*
X024817Y020817D01*
X024795Y020842D01*
X024771Y020870D01*
X024770Y020871D01*
X024766Y020875D01*
X024762Y020881D01*
X024754Y020889D01*
X024746Y020900D01*
X024735Y020911D01*
X024713Y020937D01*
X024687Y020964D01*
X024660Y020992D01*
X024648Y021006D01*
X024635Y021017D01*
X024622Y021028D01*
X024611Y021037D01*
X024610D01*
X024608Y021039D01*
X024605Y021041D01*
X024600Y021044D01*
X024589Y021051D01*
X024574Y021059D01*
X024557Y021067D01*
X024538Y021074D01*
X024517Y021078D01*
X024498Y021081D01*
X024495D01*
X024488Y021080D01*
X024478Y021078D01*
X024465Y021076D01*
X024450Y021070D01*
X024435Y021063D01*
X024419Y021054D01*
X024404Y021040D01*
X024403Y021038D01*
X024399Y021033D01*
X024393Y021024D01*
X024385Y021013D01*
X024378Y020998D01*
X024372Y020980D01*
X024367Y020960D01*
X024366Y020937D01*
Y020935D01*
Y020933D01*
Y020930D01*
X024367Y020925D01*
X024369Y020914D01*
X024371Y020899D01*
X024377Y020881D01*
X024384Y020863D01*
X024394Y020845D01*
X024408Y020829D01*
X024410Y020828D01*
X024415Y020824D01*
X024424Y020817D01*
X024437Y020810D01*
X024453Y020802D01*
X024471Y020796D01*
X024493Y020791D01*
X024518Y020789D01*
X024508Y020693D01*
X024503D01*
X024498Y020694D01*
X024491Y020696D01*
X024482Y020698D01*
X024471Y020699D01*
X024448Y020706D01*
X024422Y020715D01*
X024395Y020728D01*
X024369Y020745D01*
X024357Y020754D01*
X024346Y020766D01*
X024344Y020767D01*
X024343Y020769D01*
X024340Y020773D01*
X024336Y020777D01*
X024333Y020784D01*
X024327Y020792D01*
X024322Y020802D01*
X024317Y020812D01*
X024312Y020824D01*
X024306Y020836D01*
X024302Y020851D01*
X024298Y020866D01*
X024291Y020901D01*
X024290Y020919D01*
X024289Y020939D01*
Y020940D01*
Y020943D01*
Y020949D01*
X024290Y020957D01*
X024291Y020967D01*
X024292Y020977D01*
X024294Y020988D01*
X024297Y021001D01*
X024304Y021029D01*
X024314Y021058D01*
X024321Y021073D01*
X024329Y021086D01*
X024340Y021099D01*
X024350Y021112D01*
X024351Y021113D01*
X024352Y021114D01*
X024356Y021118D01*
X024361Y021122D01*
X024367Y021127D01*
X024374Y021133D01*
X024392Y021144D01*
X024414Y021156D01*
X024439Y021166D01*
X024468Y021174D01*
X024484Y021175D01*
X024500Y021176D01*
X024508D01*
X024517Y021175D01*
X024529Y021174D01*
X024543Y021172D01*
X024558Y021168D01*
X024574Y021164D01*
X024590Y021157D01*
X024592Y021156D01*
X024598Y021153D01*
X024606Y021149D01*
X024618Y021142D01*
X024631Y021134D01*
X024648Y021123D01*
X024664Y021110D01*
X024682Y021095D01*
X024685Y021092D01*
X024691Y021086D01*
X024702Y021076D01*
X024709Y021069D01*
X024717Y021061D01*
X024726Y021052D01*
X024736Y021040D01*
X024747Y021029D01*
X024759Y021016D01*
X024772Y021002D01*
X024786Y020986D01*
X024800Y020970D01*
X024816Y020952D01*
X024817Y020950D01*
X024819Y020948D01*
X024823Y020943D01*
X024827Y020938D01*
X024839Y020924D01*
X024854Y020907D01*
X024870Y020889D01*
X024886Y020871D01*
X024900Y020856D01*
X024906Y020850D01*
X024912Y020844D01*
X024913Y020843D01*
X024916Y020841D01*
X024921Y020836D01*
X024928Y020830D01*
X024943Y020818D01*
X024961Y020805D01*
Y021178D01*
X025050D01*
Y020676D01*
D02*
G37*
%LPC*%
G36*
X035693Y019263D02*
X035664D01*
X035656Y019262D01*
X035648D01*
X035639Y019261D01*
X035616Y019258D01*
X035591Y019252D01*
X035565Y019244D01*
X035541Y019232D01*
X035519Y019216D01*
X035518D01*
X035516Y019214D01*
X035511Y019208D01*
X035501Y019198D01*
X035492Y019185D01*
X035483Y019168D01*
X035474Y019148D01*
X035468Y019126D01*
X035466Y019115D01*
Y019102D01*
Y019101D01*
Y019099D01*
Y019095D01*
X035467Y019090D01*
X035468Y019078D01*
X035473Y019062D01*
X035478Y019043D01*
X035488Y019024D01*
X035501Y019004D01*
X035510Y018995D01*
X035519Y018986D01*
X035521Y018983D01*
X035525Y018981D01*
X035528Y018979D01*
X035534Y018975D01*
X035541Y018972D01*
X035549Y018967D01*
X035558Y018964D01*
X035568Y018959D01*
X035580Y018954D01*
X035593Y018951D01*
X035608Y018947D01*
X035623Y018945D01*
X035640Y018943D01*
X035657Y018941D01*
X035687D01*
X035694Y018942D01*
X035702D01*
X035712Y018943D01*
X035736Y018946D01*
X035761Y018952D01*
X035787Y018959D01*
X035813Y018971D01*
X035824Y018977D01*
X035835Y018986D01*
X035837Y018988D01*
X035843Y018994D01*
X035851Y019004D01*
X035860Y019018D01*
X035870Y019034D01*
X035879Y019055D01*
X035884Y019077D01*
X035885Y019089D01*
X035887Y019102D01*
Y019103D01*
Y019105D01*
Y019109D01*
X035885Y019113D01*
X035884Y019126D01*
X035880Y019142D01*
X035874Y019161D01*
X035865Y019180D01*
X035852Y019199D01*
X035844Y019208D01*
X035835Y019217D01*
X035834D01*
X035832Y019220D01*
X035829Y019222D01*
X035824Y019224D01*
X035819Y019228D01*
X035812Y019232D01*
X035804Y019236D01*
X035794Y019240D01*
X035784Y019245D01*
X035772Y019248D01*
X035759Y019253D01*
X035744Y019256D01*
X035729Y019259D01*
X035711Y019261D01*
X035693Y019263D01*
D02*
G37*
G36*
X035703Y019825D02*
X035674D01*
X035666Y019824D01*
X035657D01*
X035647Y019823D01*
X035621Y019819D01*
X035595Y019815D01*
X035567Y019806D01*
X035541Y019796D01*
X035529Y019789D01*
X035519Y019781D01*
X035518D01*
X035516Y019779D01*
X035511Y019773D01*
X035501Y019764D01*
X035492Y019751D01*
X035483Y019736D01*
X035474Y019718D01*
X035468Y019697D01*
X035466Y019685D01*
Y019674D01*
Y019673D01*
Y019672D01*
Y019668D01*
X035467Y019663D01*
X035468Y019652D01*
X035472Y019638D01*
X035478Y019622D01*
X035488Y019605D01*
X035499Y019587D01*
X035507Y019579D01*
X035516Y019571D01*
X035519Y019569D01*
X035522Y019568D01*
X035526Y019564D01*
X035531Y019562D01*
X035538Y019559D01*
X035546Y019554D01*
X035556Y019550D01*
X035566Y019547D01*
X035578Y019542D01*
X035591Y019539D01*
X035605Y019537D01*
X035621Y019533D01*
X035639Y019532D01*
X035657Y019530D01*
X035687D01*
X035694Y019531D01*
X035703D01*
X035712Y019532D01*
X035737Y019535D01*
X035762Y019540D01*
X035789Y019548D01*
X035813Y019559D01*
X035824Y019565D01*
X035835Y019574D01*
X035837Y019576D01*
X035843Y019582D01*
X035851Y019591D01*
X035860Y019604D01*
X035870Y019619D01*
X035879Y019636D01*
X035884Y019657D01*
X035885Y019667D01*
X035887Y019678D01*
Y019680D01*
Y019681D01*
Y019684D01*
X035885Y019689D01*
X035884Y019700D01*
X035881Y019714D01*
X035874Y019730D01*
X035866Y019748D01*
X035853Y019766D01*
X035846Y019774D01*
X035837Y019782D01*
X035836D01*
X035835Y019785D01*
X035831Y019786D01*
X035828Y019789D01*
X035822Y019793D01*
X035816Y019796D01*
X035808Y019800D01*
X035799Y019804D01*
X035790Y019808D01*
X035778Y019811D01*
X035766Y019815D01*
X035752Y019818D01*
X035737Y019821D01*
X035721Y019823D01*
X035703Y019825D01*
D02*
G37*
G36*
X024853Y015675D02*
X024824D01*
X024816Y015674D01*
X024807D01*
X024797Y015673D01*
X024771Y015669D01*
X024745Y015665D01*
X024717Y015656D01*
X024691Y015646D01*
X024679Y015639D01*
X024669Y015631D01*
X024668D01*
X024666Y015629D01*
X024661Y015623D01*
X024651Y015614D01*
X024642Y015601D01*
X024633Y015586D01*
X024624Y015568D01*
X024618Y015547D01*
X024616Y015535D01*
Y015524D01*
Y015523D01*
Y015522D01*
Y015518D01*
X024617Y015513D01*
X024618Y015502D01*
X024622Y015488D01*
X024628Y015472D01*
X024638Y015455D01*
X024649Y015437D01*
X024657Y015429D01*
X024666Y015421D01*
X024669Y015419D01*
X024672Y015418D01*
X024676Y015414D01*
X024681Y015412D01*
X024688Y015409D01*
X024696Y015404D01*
X024706Y015400D01*
X024716Y015397D01*
X024728Y015392D01*
X024741Y015389D01*
X024755Y015387D01*
X024771Y015383D01*
X024789Y015382D01*
X024807Y015380D01*
X024837D01*
X024844Y015381D01*
X024853D01*
X024862Y015382D01*
X024887Y015385D01*
X024912Y015390D01*
X024939Y015398D01*
X024963Y015409D01*
X024974Y015415D01*
X024985Y015424D01*
X024987Y015426D01*
X024993Y015432D01*
X025001Y015441D01*
X025010Y015454D01*
X025020Y015468D01*
X025029Y015486D01*
X025034Y015507D01*
X025035Y015517D01*
X025037Y015528D01*
Y015530D01*
Y015531D01*
Y015534D01*
X025035Y015539D01*
X025034Y015550D01*
X025031Y015564D01*
X025024Y015580D01*
X025016Y015598D01*
X025003Y015616D01*
X024996Y015624D01*
X024987Y015632D01*
X024986D01*
X024985Y015635D01*
X024981Y015636D01*
X024978Y015639D01*
X024972Y015643D01*
X024966Y015646D01*
X024958Y015650D01*
X024949Y015654D01*
X024940Y015658D01*
X024928Y015661D01*
X024916Y015665D01*
X024902Y015668D01*
X024887Y015671D01*
X024871Y015673D01*
X024853Y015675D01*
D02*
G37*
G36*
X024774Y016283D02*
X024770D01*
X024767Y016281D01*
X024762D01*
X024749Y016279D01*
X024734Y016276D01*
X024718Y016271D01*
X024701Y016264D01*
X024684Y016257D01*
X024670Y016247D01*
X024669D01*
X024668Y016244D01*
X024661Y016239D01*
X024653Y016228D01*
X024642Y016216D01*
X024632Y016198D01*
X024623Y016179D01*
X024617Y016157D01*
X024616Y016144D01*
X024615Y016131D01*
Y016130D01*
Y016129D01*
Y016126D01*
X024616Y016121D01*
X024617Y016108D01*
X024620Y016093D01*
X024625Y016076D01*
X024633Y016059D01*
X024643Y016040D01*
X024658Y016023D01*
X024661Y016021D01*
X024666Y016016D01*
X024676Y016009D01*
X024690Y016001D01*
X024706Y015993D01*
X024725Y015985D01*
X024748Y015979D01*
X024774Y015976D01*
Y016283D01*
D02*
G37*
G36*
X024843Y015113D02*
X024814D01*
X024806Y015112D01*
X024798D01*
X024789Y015111D01*
X024766Y015108D01*
X024741Y015102D01*
X024715Y015094D01*
X024691Y015082D01*
X024669Y015066D01*
X024668D01*
X024666Y015064D01*
X024661Y015058D01*
X024651Y015048D01*
X024642Y015035D01*
X024633Y015018D01*
X024624Y014998D01*
X024618Y014976D01*
X024616Y014965D01*
Y014952D01*
Y014951D01*
Y014949D01*
Y014945D01*
X024617Y014940D01*
X024618Y014928D01*
X024623Y014912D01*
X024628Y014893D01*
X024638Y014874D01*
X024651Y014854D01*
X024660Y014845D01*
X024669Y014835D01*
X024671Y014833D01*
X024675Y014831D01*
X024678Y014829D01*
X024684Y014825D01*
X024691Y014822D01*
X024699Y014817D01*
X024708Y014814D01*
X024718Y014809D01*
X024730Y014804D01*
X024743Y014801D01*
X024758Y014797D01*
X024773Y014795D01*
X024790Y014793D01*
X024807Y014791D01*
X024837D01*
X024844Y014792D01*
X024852D01*
X024862Y014793D01*
X024886Y014796D01*
X024911Y014802D01*
X024937Y014809D01*
X024963Y014821D01*
X024974Y014827D01*
X024985Y014835D01*
X024987Y014838D01*
X024993Y014844D01*
X025001Y014854D01*
X025010Y014868D01*
X025020Y014884D01*
X025029Y014905D01*
X025034Y014927D01*
X025035Y014939D01*
X025037Y014952D01*
Y014953D01*
Y014955D01*
Y014959D01*
X025035Y014963D01*
X025034Y014976D01*
X025030Y014992D01*
X025024Y015011D01*
X025015Y015030D01*
X025002Y015049D01*
X024994Y015058D01*
X024985Y015067D01*
X024984D01*
X024982Y015070D01*
X024979Y015072D01*
X024974Y015074D01*
X024969Y015078D01*
X024962Y015082D01*
X024954Y015086D01*
X024944Y015090D01*
X024934Y015095D01*
X024922Y015098D01*
X024909Y015103D01*
X024894Y015106D01*
X024879Y015109D01*
X024861Y015111D01*
X024843Y015113D01*
D02*
G37*
G36*
X035624Y020433D02*
X035620D01*
X035617Y020431D01*
X035612D01*
X035599Y020429D01*
X035584Y020426D01*
X035568Y020421D01*
X035551Y020414D01*
X035534Y020407D01*
X035520Y020397D01*
X035519D01*
X035518Y020394D01*
X035511Y020389D01*
X035503Y020378D01*
X035492Y020366D01*
X035482Y020348D01*
X035473Y020329D01*
X035467Y020307D01*
X035466Y020294D01*
X035465Y020281D01*
Y020280D01*
Y020279D01*
Y020276D01*
X035466Y020271D01*
X035467Y020258D01*
X035470Y020243D01*
X035475Y020226D01*
X035483Y020209D01*
X035493Y020190D01*
X035508Y020173D01*
X035511Y020171D01*
X035516Y020166D01*
X035526Y020159D01*
X035540Y020151D01*
X035556Y020143D01*
X035575Y020135D01*
X035598Y020129D01*
X035624Y020126D01*
Y020433D01*
D02*
G37*
G36*
X035566Y022117D02*
X035546D01*
X035536Y022116D01*
X035525Y022115D01*
X035512Y022114D01*
X035499Y022112D01*
X035469Y022108D01*
X035439Y022101D01*
X035410Y022091D01*
X035397Y022085D01*
X035384Y022078D01*
X035383D01*
X035382Y022076D01*
X035378Y022074D01*
X035373Y022071D01*
X035362Y022063D01*
X035349Y022051D01*
X035334Y022037D01*
X035320Y022021D01*
X035308Y022003D01*
X035297Y021983D01*
X035296Y021981D01*
X035295Y021975D01*
X035293Y021966D01*
X035289Y021952D01*
X035286Y021934D01*
X035284Y021912D01*
X035282Y021885D01*
X035281Y021854D01*
Y021696D01*
X035861D01*
Y021856D01*
Y021858D01*
Y021860D01*
Y021863D01*
Y021869D01*
X035860Y021882D01*
X035859Y021899D01*
X035858Y021918D01*
X035855Y021937D01*
X035852Y021956D01*
X035847Y021973D01*
X035846Y021975D01*
X035845Y021980D01*
X035842Y021988D01*
X035837Y021997D01*
X035831Y022009D01*
X035825Y022020D01*
X035817Y022031D01*
X035808Y022041D01*
X035807Y022042D01*
X035801Y022047D01*
X035793Y022054D01*
X035783Y022062D01*
X035769Y022070D01*
X035753Y022079D01*
X035733Y022088D01*
X035712Y022096D01*
X035711D01*
X035710Y022097D01*
X035707Y022099D01*
X035702Y022100D01*
X035696Y022101D01*
X035689Y022103D01*
X035672Y022107D01*
X035650Y022110D01*
X035625Y022114D01*
X035597Y022116D01*
X035566Y022117D01*
D02*
G37*
%LPD*%
D10*
X022055Y029700D02*
D03*
X022645D02*
D03*
X024195Y029700D02*
D03*
X023605D02*
D03*
D11*
X022050Y014350D02*
Y016350D01*
Y019900D02*
Y024150D01*
Y016350D02*
Y019900D01*
X022250Y030450D02*
Y030700D01*
X022055Y030255D02*
X022250Y030450D01*
X022055Y029700D02*
Y030255D01*
X022645Y029700D02*
X023605D01*
X023605Y029700D02*
Y030595D01*
X024195Y029700D02*
X024600Y030105D01*
Y030500D01*
X022250Y032700D02*
X024950D01*
X025269Y013643D02*
X025277Y013650D01*
X022050Y014350D02*
X022757Y013643D01*
X025269D01*
X025277Y013650D02*
X035150D01*
X035700Y014200D01*
Y017300D01*
X022055Y024155D02*
Y029700D01*
X022050Y024150D02*
X023400D01*
D12*
X036700Y027100D02*
X036175D01*
X035913Y027362D01*
X036175Y027625D01*
X036700D01*
X036306D01*
Y027100D01*
X036700Y027887D02*
Y028281D01*
X036569Y028412D01*
X036438Y028281D01*
Y028018D01*
X036306Y027887D01*
X036175Y028018D01*
Y028412D01*
X036700Y028674D02*
Y029068D01*
X036569Y029199D01*
X036438Y029068D01*
Y028805D01*
X036306Y028674D01*
X036175Y028805D01*
Y029199D01*
X036700Y029855D02*
Y029593D01*
X036569Y029461D01*
X036306D01*
X036175Y029593D01*
Y029855D01*
X036306Y029986D01*
X036438D01*
Y029461D01*
X036175Y030249D02*
X036700D01*
X036438D01*
X036306Y030380D01*
X036175Y030511D01*
Y030642D01*
Y031036D02*
X036700Y031298D01*
X036175Y031560D01*
X030850Y021000D02*
X029276D01*
X029800Y021525D01*
X029276Y022050D01*
X030850D01*
X029276Y022574D02*
X030850D01*
Y023361D01*
X030588Y023624D01*
X030325D01*
X030063Y023361D01*
Y022574D01*
Y023361D01*
X029800Y023624D01*
X029538D01*
X029276Y023361D01*
Y022574D01*
X030850Y024936D02*
Y024411D01*
X030588Y024149D01*
X030063D01*
X029800Y024411D01*
Y024936D01*
X030063Y025198D01*
X030325D01*
Y024149D01*
X029276Y026772D02*
X030850D01*
Y025985D01*
X030588Y025723D01*
X030063D01*
X029800Y025985D01*
Y026772D01*
D13*
X022250Y031750D02*
D03*
X023250D02*
D03*
D14*
X024250D02*
D03*
D15*
X023300Y033800D02*
D03*
X025650Y033300D02*
D03*
D16*
X024300Y033800D02*
D03*
X023450Y014400D02*
D03*
Y015400D02*
D03*
Y016400D02*
D03*
X025650Y032300D02*
D03*
Y031300D02*
D03*
Y030300D02*
D03*
Y029300D02*
D03*
Y028300D02*
D03*
Y027300D02*
D03*
Y026300D02*
D03*
Y025300D02*
D03*
Y024300D02*
D03*
Y023300D02*
D03*
Y022300D02*
D03*
Y021300D02*
D03*
Y020300D02*
D03*
Y019300D02*
D03*
Y018300D02*
D03*
Y017300D02*
D03*
Y016300D02*
D03*
Y015300D02*
D03*
Y014300D02*
D03*
X034650Y033300D02*
D03*
Y032300D02*
D03*
Y031300D02*
D03*
Y030300D02*
D03*
Y029300D02*
D03*
Y028300D02*
D03*
Y027300D02*
D03*
Y026300D02*
D03*
Y025300D02*
D03*
Y024300D02*
D03*
Y023300D02*
D03*
Y022300D02*
D03*
Y021300D02*
D03*
Y020300D02*
D03*
Y019300D02*
D03*
Y018300D02*
D03*
Y017300D02*
D03*
Y016300D02*
D03*
Y015300D02*
D03*
Y014300D02*
D03*
X036950Y019300D02*
D03*
Y018300D02*
D03*
Y017300D02*
D03*
X023500Y019900D02*
D03*
Y020900D02*
D03*
Y021900D02*
D03*
X023400Y025200D02*
D03*
Y026200D02*
D03*
Y027200D02*
D03*
D17*
X023450Y017400D02*
D03*
X036950Y016300D02*
D03*
X023500Y022900D02*
D03*
X023400Y028200D02*
D03*
D18*
X035700Y017300D02*
D03*
X023400Y024150D02*
D03*
X022050Y019900D02*
D03*
Y016350D02*
D03*
X022250Y030700D02*
D03*
X023605Y030595D02*
D03*
X024600Y030500D02*
D03*
X022250Y032700D02*
D03*
X024950D02*
D03*
M02*
