%FSAX24Y24*%
%MOIN*%
G70*
G01*
G75*
G04 Layer_Color=16711935*
%ADD10R,0.0433X0.0551*%
%ADD11C,0.0315*%
%ADD12C,0.0100*%
%ADD13C,0.0669*%
%ADD14R,0.0669X0.0669*%
%ADD15R,0.0591X0.0591*%
%ADD16C,0.0591*%
%ADD17R,0.0591X0.0591*%
%ADD18C,0.0500*%
%ADD19C,0.0079*%
%ADD20C,0.0098*%
%ADD21C,0.0236*%
%ADD22C,0.0059*%
%ADD23R,0.0513X0.0631*%
%ADD24C,0.0749*%
%ADD25R,0.0749X0.0749*%
%ADD26R,0.0671X0.0671*%
%ADD27C,0.0671*%
%ADD28R,0.0671X0.0671*%
%ADD29C,0.0580*%
D24*
X022250Y031750D02*
D03*
X023250D02*
D03*
D25*
X024250D02*
D03*
D26*
X023300Y033800D02*
D03*
X025650Y033300D02*
D03*
D27*
X024300Y033800D02*
D03*
X023450Y014400D02*
D03*
Y015400D02*
D03*
Y016400D02*
D03*
X025650Y032300D02*
D03*
Y031300D02*
D03*
Y030300D02*
D03*
Y029300D02*
D03*
Y028300D02*
D03*
Y027300D02*
D03*
Y026300D02*
D03*
Y025300D02*
D03*
Y024300D02*
D03*
Y023300D02*
D03*
Y022300D02*
D03*
Y021300D02*
D03*
Y020300D02*
D03*
Y019300D02*
D03*
Y018300D02*
D03*
Y017300D02*
D03*
Y016300D02*
D03*
Y015300D02*
D03*
Y014300D02*
D03*
X034650Y033300D02*
D03*
Y032300D02*
D03*
Y031300D02*
D03*
Y030300D02*
D03*
Y029300D02*
D03*
Y028300D02*
D03*
Y027300D02*
D03*
Y026300D02*
D03*
Y025300D02*
D03*
Y024300D02*
D03*
Y023300D02*
D03*
Y022300D02*
D03*
Y021300D02*
D03*
Y020300D02*
D03*
Y019300D02*
D03*
Y018300D02*
D03*
Y017300D02*
D03*
Y016300D02*
D03*
Y015300D02*
D03*
Y014300D02*
D03*
X036950Y019300D02*
D03*
Y018300D02*
D03*
Y017300D02*
D03*
X023500Y019900D02*
D03*
Y020900D02*
D03*
Y021900D02*
D03*
X023400Y025200D02*
D03*
Y026200D02*
D03*
Y027200D02*
D03*
D28*
X023450Y017400D02*
D03*
X036950Y016300D02*
D03*
X023500Y022900D02*
D03*
X023400Y028200D02*
D03*
D29*
X035700Y017300D02*
D03*
X023400Y024150D02*
D03*
X022050Y019900D02*
D03*
Y016350D02*
D03*
X022250Y030700D02*
D03*
X023605Y030595D02*
D03*
X024600Y030500D02*
D03*
X022250Y032700D02*
D03*
X024950D02*
D03*
M02*
